G75*
%MOIN*%
%OFA0B0*%
%FSLAX25Y25*%
%IPPOS*%
%LPD*%
%AMOC8*
5,1,8,0,0,1.08239X$1,22.5*
%
%ADD10C,0.00900*%
%ADD11OC8,0.05600*%
%ADD12C,0.04800*%
%ADD13C,0.06400*%
%ADD14OC8,0.06600*%
%ADD15C,0.04800*%
%ADD16C,0.05400*%
%ADD17OC8,0.04600*%
%ADD18C,0.04600*%
%ADD19C,0.06000*%
%ADD20C,0.02400*%
%ADD21C,0.02000*%
D10*
X0035729Y0053350D02*
X0035729Y0054634D01*
X0030591Y0059772D01*
X0030591Y0061057D01*
X0035729Y0061057D01*
X0038510Y0059772D02*
X0039794Y0061057D01*
X0042363Y0061057D01*
X0043647Y0059772D01*
X0046428Y0057203D02*
X0051566Y0057203D01*
X0054347Y0055919D02*
X0055632Y0057203D01*
X0059485Y0057203D01*
X0059485Y0054634D01*
X0058200Y0053350D01*
X0055632Y0053350D01*
X0054347Y0054634D01*
X0054347Y0055919D01*
X0056916Y0059772D02*
X0059485Y0057203D01*
X0062266Y0054634D02*
X0063550Y0053350D01*
X0066119Y0053350D01*
X0067404Y0054634D01*
X0062266Y0059772D01*
X0062266Y0054634D01*
X0067404Y0054634D02*
X0067404Y0059772D01*
X0066119Y0061057D01*
X0063550Y0061057D01*
X0062266Y0059772D01*
X0056916Y0059772D02*
X0054347Y0061057D01*
X0043647Y0053350D02*
X0038510Y0058488D01*
X0038510Y0059772D01*
X0038510Y0053350D02*
X0043647Y0053350D01*
X0070185Y0057203D02*
X0075322Y0057203D01*
X0078103Y0057203D02*
X0078103Y0054634D01*
X0079388Y0053350D01*
X0081957Y0053350D01*
X0083241Y0054634D01*
X0083241Y0057203D02*
X0080672Y0058488D01*
X0079388Y0058488D01*
X0078103Y0057203D01*
X0083241Y0057203D02*
X0083241Y0061057D01*
X0078103Y0061057D01*
X0088591Y0061057D02*
X0088591Y0053350D01*
X0091160Y0053350D02*
X0086022Y0053350D01*
X0091160Y0058488D02*
X0088591Y0061057D01*
X0093941Y0059772D02*
X0099079Y0054634D01*
X0097794Y0053350D01*
X0095225Y0053350D01*
X0093941Y0054634D01*
X0093941Y0059772D01*
X0095225Y0061057D01*
X0097794Y0061057D01*
X0099079Y0059772D01*
X0099079Y0054634D01*
X0101860Y0053350D02*
X0106997Y0053350D01*
X0101860Y0058488D01*
X0101860Y0059772D01*
X0103144Y0061057D01*
X0105713Y0061057D01*
X0106997Y0059772D01*
X0117697Y0057203D02*
X0117697Y0054634D01*
X0118982Y0053350D01*
X0121551Y0053350D01*
X0122835Y0054634D01*
X0122835Y0057203D01*
X0121551Y0058488D01*
X0118982Y0058488D01*
X0117697Y0057203D01*
X0125616Y0057203D02*
X0125616Y0053350D01*
X0125616Y0057203D02*
X0126900Y0058488D01*
X0130754Y0058488D01*
X0130754Y0053350D01*
X0133464Y0053350D02*
X0136033Y0053350D01*
X0134749Y0053350D02*
X0134749Y0058488D01*
X0136033Y0058488D01*
X0134749Y0061057D02*
X0134749Y0062341D01*
X0142773Y0059772D02*
X0142773Y0057203D01*
X0144058Y0055919D01*
X0147911Y0055919D01*
X0145342Y0055919D02*
X0142773Y0053350D01*
X0139992Y0053350D02*
X0139992Y0054634D01*
X0138708Y0054634D01*
X0138708Y0053350D01*
X0139992Y0053350D01*
X0147911Y0053350D02*
X0147911Y0061057D01*
X0144058Y0061057D01*
X0142773Y0059772D01*
X0150621Y0061057D02*
X0153190Y0061057D01*
X0151906Y0061057D02*
X0151906Y0053350D01*
X0153190Y0053350D02*
X0150621Y0053350D01*
D11*
X0147200Y0029700D03*
X0137200Y0029700D03*
X0082200Y0029700D03*
X0072200Y0029700D03*
D12*
X0074700Y0039800D02*
X0074700Y0044600D01*
X0064700Y0044600D02*
X0064700Y0039800D01*
X0054700Y0039800D02*
X0054700Y0044600D01*
X0044700Y0044600D02*
X0044700Y0039800D01*
X0034700Y0039800D02*
X0034700Y0044600D01*
X0024700Y0044600D02*
X0024700Y0039800D01*
X0024700Y0069800D02*
X0024700Y0074600D01*
X0034700Y0074600D02*
X0034700Y0069800D01*
X0044700Y0069800D02*
X0044700Y0074600D01*
X0054700Y0074600D02*
X0054700Y0069800D01*
X0064700Y0069800D02*
X0064700Y0074600D01*
X0074700Y0074600D02*
X0074700Y0069800D01*
X0084700Y0069800D02*
X0084700Y0074600D01*
X0094700Y0074600D02*
X0094700Y0069800D01*
X0104700Y0069800D02*
X0104700Y0074600D01*
X0114700Y0074600D02*
X0114700Y0069800D01*
X0124700Y0069800D02*
X0124700Y0074600D01*
X0134700Y0074600D02*
X0134700Y0069800D01*
X0144700Y0069800D02*
X0144700Y0074600D01*
X0154700Y0074600D02*
X0154700Y0069800D01*
X0154700Y0044600D02*
X0154700Y0039800D01*
X0144700Y0039800D02*
X0144700Y0044600D01*
X0134700Y0044600D02*
X0134700Y0039800D01*
X0124700Y0039800D02*
X0124700Y0044600D01*
X0114700Y0044600D02*
X0114700Y0039800D01*
X0104700Y0039800D02*
X0104700Y0044600D01*
X0094700Y0044600D02*
X0094700Y0039800D01*
X0084700Y0039800D02*
X0084700Y0044600D01*
X0154853Y0029495D02*
X0154853Y0024695D01*
X0164695Y0024695D02*
X0164695Y0029495D01*
X0174538Y0029495D02*
X0174538Y0024695D01*
D13*
X0169700Y0092200D03*
X0159700Y0092200D03*
X0149700Y0092200D03*
X0149700Y0102200D03*
X0159700Y0102200D03*
X0169700Y0102200D03*
D14*
X0164700Y0084700D03*
X0174700Y0084700D03*
X0132200Y0094700D03*
X0122200Y0094700D03*
X0104700Y0094700D03*
X0094700Y0094700D03*
X0077200Y0094700D03*
X0067200Y0094700D03*
X0164700Y0054700D03*
X0174700Y0054700D03*
X0054700Y0032200D03*
X0024700Y0032200D03*
D15*
X0100200Y0024700D03*
X0119200Y0024700D03*
D16*
X0064700Y0022400D02*
X0064700Y0017000D01*
X0054700Y0017000D02*
X0054700Y0022400D01*
X0044700Y0022400D02*
X0044700Y0017000D01*
X0034700Y0017000D02*
X0034700Y0022400D01*
D17*
X0166200Y0044700D03*
D18*
X0173200Y0044700D03*
D19*
X0053000Y0083300D02*
X0047000Y0083300D01*
X0027400Y0083300D02*
X0021400Y0083300D01*
X0021400Y0101100D02*
X0027400Y0101100D01*
X0047000Y0101100D02*
X0053000Y0101100D01*
D20*
X0014900Y0106961D02*
X0014900Y0014900D01*
X0030266Y0014900D01*
X0029800Y0016025D01*
X0029800Y0023375D01*
X0030546Y0025176D01*
X0031924Y0026554D01*
X0033725Y0027300D01*
X0035675Y0027300D01*
X0037476Y0026554D01*
X0038854Y0025176D01*
X0039600Y0023375D01*
X0039600Y0016025D01*
X0039134Y0014900D01*
X0040266Y0014900D01*
X0039800Y0016025D01*
X0039800Y0023375D01*
X0040546Y0025176D01*
X0041924Y0026554D01*
X0043725Y0027300D01*
X0045675Y0027300D01*
X0047476Y0026554D01*
X0048854Y0025176D01*
X0049600Y0023375D01*
X0049600Y0016025D01*
X0049134Y0014900D01*
X0050271Y0014900D01*
X0050159Y0015119D01*
X0049921Y0015853D01*
X0049800Y0016614D01*
X0049800Y0019700D01*
X0054700Y0019700D01*
X0059600Y0019700D01*
X0059600Y0022786D01*
X0059479Y0023547D01*
X0059241Y0024281D01*
X0058891Y0024968D01*
X0058437Y0025592D01*
X0057892Y0026137D01*
X0057268Y0026591D01*
X0057004Y0026726D01*
X0060200Y0029922D01*
X0060200Y0034478D01*
X0058042Y0036636D01*
X0058600Y0037194D01*
X0059300Y0038885D01*
X0059300Y0045515D01*
X0058600Y0047206D01*
X0057306Y0048500D01*
X0055615Y0049200D01*
X0053785Y0049200D01*
X0052094Y0048500D01*
X0050800Y0047206D01*
X0050100Y0045515D01*
X0050100Y0038885D01*
X0050800Y0037194D01*
X0051358Y0036636D01*
X0049200Y0034478D01*
X0049200Y0029922D01*
X0052396Y0026726D01*
X0052132Y0026591D01*
X0051508Y0026137D01*
X0050962Y0025592D01*
X0050509Y0024968D01*
X0050159Y0024281D01*
X0049921Y0023547D01*
X0049800Y0022786D01*
X0049800Y0019700D01*
X0054700Y0019700D01*
X0054700Y0019700D01*
X0054700Y0019700D01*
X0059600Y0019700D01*
X0059600Y0016614D01*
X0059479Y0015853D01*
X0059241Y0015119D01*
X0059129Y0014900D01*
X0060266Y0014900D01*
X0059800Y0016025D01*
X0059800Y0023375D01*
X0060546Y0025176D01*
X0061924Y0026554D01*
X0063725Y0027300D01*
X0065675Y0027300D01*
X0067476Y0026554D01*
X0068854Y0025176D01*
X0069279Y0024150D01*
X0079625Y0024150D01*
X0080175Y0024700D01*
X0080129Y0024700D01*
X0077200Y0027629D01*
X0077200Y0029700D01*
X0077200Y0031771D01*
X0074271Y0034700D01*
X0072200Y0034700D01*
X0072200Y0029700D01*
X0077200Y0029700D01*
X0072200Y0029700D01*
X0072200Y0029700D01*
X0072200Y0029700D01*
X0072200Y0024700D01*
X0074271Y0024700D01*
X0077200Y0027629D01*
X0077200Y0031771D01*
X0080129Y0034700D01*
X0084000Y0034700D01*
X0084000Y0035200D01*
X0083785Y0035200D01*
X0082094Y0035900D01*
X0080800Y0037194D01*
X0080100Y0038885D01*
X0080100Y0045515D01*
X0080800Y0047206D01*
X0082094Y0048500D01*
X0083785Y0049200D01*
X0085615Y0049200D01*
X0087306Y0048500D01*
X0088600Y0047206D01*
X0089300Y0045515D01*
X0089300Y0039625D01*
X0089913Y0039013D01*
X0090400Y0037837D01*
X0090400Y0026563D01*
X0089913Y0025387D01*
X0089013Y0024487D01*
X0082763Y0018237D01*
X0081587Y0017750D01*
X0069600Y0017750D01*
X0069600Y0016025D01*
X0069134Y0014900D01*
X0178201Y0014900D01*
X0178201Y0021853D01*
X0177143Y0020796D01*
X0175453Y0020095D01*
X0173623Y0020095D01*
X0171932Y0020796D01*
X0170638Y0022090D01*
X0169938Y0023780D01*
X0169938Y0030410D01*
X0170638Y0032101D01*
X0171932Y0033395D01*
X0173623Y0034095D01*
X0175453Y0034095D01*
X0177143Y0033395D01*
X0178201Y0032338D01*
X0178201Y0050423D01*
X0176978Y0049200D01*
X0172422Y0049200D01*
X0169700Y0051922D01*
X0166978Y0049200D01*
X0164700Y0049200D01*
X0164700Y0054700D01*
X0164700Y0054700D01*
X0164700Y0060200D01*
X0166978Y0060200D01*
X0169700Y0057478D01*
X0172422Y0060200D01*
X0176978Y0060200D01*
X0178201Y0058977D01*
X0178201Y0080423D01*
X0176978Y0079200D01*
X0172422Y0079200D01*
X0169700Y0081922D01*
X0166978Y0079200D01*
X0162422Y0079200D01*
X0161372Y0080250D01*
X0142813Y0080250D01*
X0141637Y0080737D01*
X0140737Y0081637D01*
X0133175Y0089200D01*
X0129922Y0089200D01*
X0127200Y0091922D01*
X0124478Y0089200D01*
X0119922Y0089200D01*
X0117900Y0091222D01*
X0117900Y0077905D01*
X0118600Y0077206D01*
X0119300Y0075515D01*
X0119300Y0068885D01*
X0118600Y0067194D01*
X0117306Y0065900D01*
X0115615Y0065200D01*
X0113785Y0065200D01*
X0112094Y0065900D01*
X0110800Y0067194D01*
X0110100Y0068885D01*
X0110100Y0075515D01*
X0110800Y0077206D01*
X0111500Y0077905D01*
X0111500Y0104087D01*
X0111987Y0105263D01*
X0112887Y0106163D01*
X0114063Y0106650D01*
X0137837Y0106650D01*
X0139013Y0106163D01*
X0139913Y0105263D01*
X0144477Y0100698D01*
X0144300Y0101126D01*
X0144300Y0103274D01*
X0145122Y0105259D01*
X0146641Y0106778D01*
X0147082Y0106961D01*
X0014900Y0106961D01*
X0014900Y0105742D02*
X0019056Y0105742D01*
X0019404Y0105919D02*
X0018675Y0105547D01*
X0018012Y0105066D01*
X0017434Y0104488D01*
X0016953Y0103825D01*
X0016581Y0103096D01*
X0016328Y0102318D01*
X0016200Y0101509D01*
X0016200Y0101100D01*
X0024400Y0101100D01*
X0024400Y0101100D01*
X0024400Y0106300D01*
X0027809Y0106300D01*
X0028618Y0106172D01*
X0029396Y0105919D01*
X0030125Y0105547D01*
X0030788Y0105066D01*
X0031366Y0104488D01*
X0031847Y0103825D01*
X0032219Y0103096D01*
X0032472Y0102318D01*
X0032600Y0101509D01*
X0032600Y0101100D01*
X0024400Y0101100D01*
X0024400Y0101100D01*
X0024400Y0106300D01*
X0020991Y0106300D01*
X0020182Y0106172D01*
X0019404Y0105919D01*
X0016707Y0103343D02*
X0014900Y0103343D01*
X0014900Y0100945D02*
X0016200Y0100945D01*
X0016200Y0101100D02*
X0016200Y0100691D01*
X0016328Y0099882D01*
X0016581Y0099104D01*
X0016953Y0098375D01*
X0017434Y0097712D01*
X0018012Y0097134D01*
X0018675Y0096653D01*
X0019404Y0096281D01*
X0020182Y0096028D01*
X0020991Y0095900D01*
X0024400Y0095900D01*
X0027809Y0095900D01*
X0028618Y0096028D01*
X0029396Y0096281D01*
X0030125Y0096653D01*
X0030788Y0097134D01*
X0031366Y0097712D01*
X0031847Y0098375D01*
X0032219Y0099104D01*
X0032472Y0099882D01*
X0032600Y0100691D01*
X0032600Y0101100D01*
X0024400Y0101100D01*
X0024400Y0095900D01*
X0024400Y0101100D01*
X0024400Y0101100D01*
X0024400Y0101100D01*
X0016200Y0101100D01*
X0016865Y0098546D02*
X0014900Y0098546D01*
X0014900Y0096148D02*
X0019813Y0096148D01*
X0024400Y0096148D02*
X0024400Y0096148D01*
X0024400Y0098546D02*
X0024400Y0098546D01*
X0024400Y0100945D02*
X0024400Y0100945D01*
X0024400Y0103343D02*
X0024400Y0103343D01*
X0024400Y0105742D02*
X0024400Y0105742D01*
X0029744Y0105742D02*
X0044656Y0105742D01*
X0045004Y0105919D02*
X0044275Y0105547D01*
X0043612Y0105066D01*
X0043034Y0104488D01*
X0042553Y0103825D01*
X0042181Y0103096D01*
X0041928Y0102318D01*
X0041800Y0101509D01*
X0041800Y0101100D01*
X0050000Y0101100D01*
X0050000Y0101100D01*
X0050000Y0106300D01*
X0053409Y0106300D01*
X0054218Y0106172D01*
X0054996Y0105919D01*
X0055725Y0105547D01*
X0056388Y0105066D01*
X0056966Y0104488D01*
X0057447Y0103825D01*
X0057819Y0103096D01*
X0058072Y0102318D01*
X0058200Y0101509D01*
X0058200Y0101100D01*
X0050000Y0101100D01*
X0050000Y0101100D01*
X0050000Y0106300D01*
X0046591Y0106300D01*
X0045782Y0106172D01*
X0045004Y0105919D01*
X0042307Y0103343D02*
X0032093Y0103343D01*
X0032600Y0100945D02*
X0041800Y0100945D01*
X0041800Y0101100D02*
X0041800Y0100691D01*
X0041928Y0099882D01*
X0042181Y0099104D01*
X0042553Y0098375D01*
X0043034Y0097712D01*
X0043612Y0097134D01*
X0044275Y0096653D01*
X0045004Y0096281D01*
X0045782Y0096028D01*
X0046591Y0095900D01*
X0050000Y0095900D01*
X0053409Y0095900D01*
X0054218Y0096028D01*
X0054996Y0096281D01*
X0055725Y0096653D01*
X0056388Y0097134D01*
X0056966Y0097712D01*
X0057447Y0098375D01*
X0057819Y0099104D01*
X0058072Y0099882D01*
X0058200Y0100691D01*
X0058200Y0101100D01*
X0050000Y0101100D01*
X0050000Y0095900D01*
X0050000Y0101100D01*
X0050000Y0101100D01*
X0050000Y0101100D01*
X0041800Y0101100D01*
X0042465Y0098546D02*
X0031935Y0098546D01*
X0028987Y0096148D02*
X0045413Y0096148D01*
X0050000Y0096148D02*
X0050000Y0096148D01*
X0050000Y0098546D02*
X0050000Y0098546D01*
X0050000Y0100945D02*
X0050000Y0100945D01*
X0050000Y0103343D02*
X0050000Y0103343D01*
X0050000Y0105742D02*
X0050000Y0105742D01*
X0055344Y0105742D02*
X0112466Y0105742D01*
X0111500Y0103343D02*
X0057693Y0103343D01*
X0058200Y0100945D02*
X0111500Y0100945D01*
X0111500Y0098546D02*
X0108632Y0098546D01*
X0110200Y0096978D02*
X0106978Y0100200D01*
X0102422Y0100200D01*
X0099700Y0097478D01*
X0096978Y0100200D01*
X0092422Y0100200D01*
X0090122Y0097900D01*
X0081778Y0097900D01*
X0079478Y0100200D01*
X0074922Y0100200D01*
X0072200Y0097478D01*
X0069478Y0100200D01*
X0064922Y0100200D01*
X0061700Y0096978D01*
X0061700Y0092422D01*
X0064922Y0089200D01*
X0069478Y0089200D01*
X0072200Y0091922D01*
X0074922Y0089200D01*
X0079478Y0089200D01*
X0081778Y0091500D01*
X0090122Y0091500D01*
X0092422Y0089200D01*
X0096978Y0089200D01*
X0099700Y0091922D01*
X0102422Y0089200D01*
X0106978Y0089200D01*
X0110200Y0092422D01*
X0110200Y0096978D01*
X0110200Y0096148D02*
X0111500Y0096148D01*
X0111500Y0093749D02*
X0110200Y0093749D01*
X0109129Y0091351D02*
X0111500Y0091351D01*
X0111500Y0088952D02*
X0014900Y0088952D01*
X0014900Y0086554D02*
X0017300Y0086554D01*
X0016992Y0086246D02*
X0016200Y0084334D01*
X0016200Y0082266D01*
X0016992Y0080354D01*
X0018454Y0078892D01*
X0020366Y0078100D01*
X0021695Y0078100D01*
X0020800Y0077206D01*
X0020100Y0075515D01*
X0020100Y0068885D01*
X0020800Y0067194D01*
X0022094Y0065900D01*
X0023785Y0065200D01*
X0025615Y0065200D01*
X0027306Y0065900D01*
X0028600Y0067194D01*
X0029300Y0068885D01*
X0029300Y0075515D01*
X0028600Y0077206D01*
X0027705Y0078100D01*
X0028434Y0078100D01*
X0030346Y0078892D01*
X0031704Y0080250D01*
X0042696Y0080250D01*
X0043757Y0079189D01*
X0042094Y0078500D01*
X0040800Y0077206D01*
X0040100Y0075515D01*
X0040100Y0068885D01*
X0040800Y0067194D01*
X0042094Y0065900D01*
X0043785Y0065200D01*
X0045615Y0065200D01*
X0047306Y0065900D01*
X0048600Y0067194D01*
X0049300Y0068885D01*
X0049300Y0075515D01*
X0048600Y0077206D01*
X0047705Y0078100D01*
X0051695Y0078100D01*
X0050800Y0077206D01*
X0050100Y0075515D01*
X0050100Y0068885D01*
X0050800Y0067194D01*
X0052094Y0065900D01*
X0053785Y0065200D01*
X0055615Y0065200D01*
X0057306Y0065900D01*
X0058600Y0067194D01*
X0059300Y0068885D01*
X0059300Y0075515D01*
X0058600Y0077206D01*
X0057306Y0078500D01*
X0056067Y0079013D01*
X0057408Y0080354D01*
X0058200Y0082266D01*
X0058200Y0084334D01*
X0057408Y0086246D01*
X0055946Y0087708D01*
X0054034Y0088500D01*
X0045966Y0088500D01*
X0044054Y0087708D01*
X0042996Y0086650D01*
X0031404Y0086650D01*
X0030346Y0087708D01*
X0028434Y0088500D01*
X0020366Y0088500D01*
X0018454Y0087708D01*
X0016992Y0086246D01*
X0016200Y0084155D02*
X0014900Y0084155D01*
X0014900Y0081757D02*
X0016411Y0081757D01*
X0014900Y0079358D02*
X0017988Y0079358D01*
X0020698Y0076960D02*
X0014900Y0076960D01*
X0014900Y0074561D02*
X0020100Y0074561D01*
X0020100Y0072163D02*
X0014900Y0072163D01*
X0014900Y0069764D02*
X0020100Y0069764D01*
X0020729Y0067366D02*
X0014900Y0067366D01*
X0014900Y0064967D02*
X0134164Y0064967D01*
X0134221Y0064991D02*
X0133247Y0064588D01*
X0132502Y0063842D01*
X0132099Y0062868D01*
X0132099Y0060799D01*
X0131281Y0061138D01*
X0126373Y0061138D01*
X0125399Y0060734D01*
X0124226Y0059560D01*
X0123797Y0059989D01*
X0123067Y0060719D01*
X0123052Y0060734D01*
X0123052Y0060734D01*
X0122493Y0060966D01*
X0122078Y0061138D01*
X0118455Y0061138D01*
X0117481Y0060734D01*
X0116735Y0059989D01*
X0115451Y0058704D01*
X0115047Y0057730D01*
X0115047Y0054107D01*
X0115210Y0053715D01*
X0115451Y0053133D01*
X0116196Y0052388D01*
X0116196Y0052388D01*
X0116735Y0051849D01*
X0116735Y0051849D01*
X0117481Y0051103D01*
X0118455Y0050700D01*
X0122078Y0050700D01*
X0123052Y0051103D01*
X0123583Y0051635D01*
X0124115Y0051103D01*
X0125089Y0050700D01*
X0126143Y0050700D01*
X0127117Y0051103D01*
X0127863Y0051849D01*
X0128185Y0052627D01*
X0128507Y0051849D01*
X0129253Y0051103D01*
X0130227Y0050700D01*
X0131281Y0050700D01*
X0132109Y0051043D01*
X0132937Y0050700D01*
X0136560Y0050700D01*
X0137370Y0051036D01*
X0138181Y0050700D01*
X0140519Y0050700D01*
X0141383Y0051058D01*
X0142246Y0050700D01*
X0143300Y0050700D01*
X0144274Y0051103D01*
X0145476Y0052305D01*
X0145665Y0051849D01*
X0146410Y0051103D01*
X0147384Y0050700D01*
X0148438Y0050700D01*
X0149266Y0051043D01*
X0150094Y0050700D01*
X0153717Y0050700D01*
X0154691Y0051103D01*
X0155437Y0051849D01*
X0155840Y0052823D01*
X0155840Y0053877D01*
X0155437Y0054851D01*
X0154691Y0055597D01*
X0154556Y0055653D01*
X0154556Y0058754D01*
X0154691Y0058810D01*
X0155437Y0059555D01*
X0155840Y0060529D01*
X0155840Y0061584D01*
X0155437Y0062558D01*
X0154691Y0063303D01*
X0153717Y0063707D01*
X0150094Y0063707D01*
X0149266Y0063364D01*
X0148438Y0063707D01*
X0143531Y0063707D01*
X0142557Y0063303D01*
X0141272Y0062019D01*
X0140527Y0061273D01*
X0140123Y0060299D01*
X0140123Y0057284D01*
X0138403Y0057284D01*
X0138683Y0057961D01*
X0138683Y0059015D01*
X0138279Y0059989D01*
X0137534Y0060734D01*
X0137398Y0060790D01*
X0137398Y0062868D01*
X0136995Y0063842D01*
X0136250Y0064588D01*
X0135276Y0064991D01*
X0134221Y0064991D01*
X0133785Y0065200D02*
X0135615Y0065200D01*
X0137306Y0065900D01*
X0138600Y0067194D01*
X0139300Y0068885D01*
X0139300Y0075515D01*
X0138600Y0077206D01*
X0137306Y0078500D01*
X0135615Y0079200D01*
X0133785Y0079200D01*
X0132094Y0078500D01*
X0130800Y0077206D01*
X0130100Y0075515D01*
X0130100Y0068885D01*
X0130800Y0067194D01*
X0132094Y0065900D01*
X0133785Y0065200D01*
X0135333Y0064967D02*
X0178201Y0064967D01*
X0178201Y0062569D02*
X0155426Y0062569D01*
X0155691Y0060170D02*
X0162392Y0060170D01*
X0162422Y0060200D02*
X0159200Y0056978D01*
X0159200Y0054700D01*
X0164700Y0054700D01*
X0164700Y0054700D01*
X0164700Y0054700D01*
X0164700Y0060200D01*
X0162422Y0060200D01*
X0164700Y0060170D02*
X0164700Y0060170D01*
X0167008Y0060170D02*
X0172392Y0060170D01*
X0169994Y0057772D02*
X0169406Y0057772D01*
X0164700Y0057772D02*
X0164700Y0057772D01*
X0164700Y0055373D02*
X0164700Y0055373D01*
X0164700Y0054700D02*
X0159200Y0054700D01*
X0159200Y0052422D01*
X0162422Y0049200D01*
X0164700Y0049200D01*
X0164700Y0054700D01*
X0164700Y0052975D02*
X0164700Y0052975D01*
X0164700Y0050576D02*
X0164700Y0050576D01*
X0164336Y0049200D02*
X0161700Y0046564D01*
X0161700Y0044700D01*
X0166200Y0044700D01*
X0166200Y0044700D01*
X0166200Y0049200D01*
X0168064Y0049200D01*
X0169700Y0047564D01*
X0170651Y0048515D01*
X0172305Y0049200D01*
X0174095Y0049200D01*
X0175749Y0048515D01*
X0177015Y0047249D01*
X0177700Y0045595D01*
X0177700Y0043805D01*
X0177015Y0042151D01*
X0175749Y0040885D01*
X0174095Y0040200D01*
X0172305Y0040200D01*
X0170651Y0040885D01*
X0169700Y0041836D01*
X0168064Y0040200D01*
X0166200Y0040200D01*
X0166200Y0044700D01*
X0166200Y0044700D01*
X0166200Y0044700D01*
X0166200Y0049200D01*
X0164336Y0049200D01*
X0163314Y0048178D02*
X0157628Y0048178D01*
X0157306Y0048500D02*
X0155615Y0049200D01*
X0153785Y0049200D01*
X0152094Y0048500D01*
X0150800Y0047206D01*
X0150100Y0045515D01*
X0150100Y0038885D01*
X0150800Y0037194D01*
X0152094Y0035900D01*
X0153785Y0035200D01*
X0155615Y0035200D01*
X0157306Y0035900D01*
X0158600Y0037194D01*
X0159300Y0038885D01*
X0159300Y0045515D01*
X0158600Y0047206D01*
X0157306Y0048500D01*
X0159191Y0045779D02*
X0161700Y0045779D01*
X0161700Y0044700D02*
X0161700Y0042836D01*
X0164336Y0040200D01*
X0166200Y0040200D01*
X0166200Y0044700D01*
X0161700Y0044700D01*
X0161700Y0043381D02*
X0159300Y0043381D01*
X0159300Y0040982D02*
X0163554Y0040982D01*
X0166200Y0040982D02*
X0166200Y0040982D01*
X0168846Y0040982D02*
X0170554Y0040982D01*
X0166200Y0043381D02*
X0166200Y0043381D01*
X0166200Y0045779D02*
X0166200Y0045779D01*
X0166200Y0048178D02*
X0166200Y0048178D01*
X0169086Y0048178D02*
X0170314Y0048178D01*
X0171046Y0050576D02*
X0168354Y0050576D01*
X0161046Y0050576D02*
X0014900Y0050576D01*
X0014900Y0048178D02*
X0021772Y0048178D01*
X0022094Y0048500D02*
X0020800Y0047206D01*
X0020100Y0045515D01*
X0020100Y0038885D01*
X0020800Y0037194D01*
X0021358Y0036636D01*
X0019200Y0034478D01*
X0019200Y0029922D01*
X0022422Y0026700D01*
X0026978Y0026700D01*
X0030200Y0029922D01*
X0030200Y0034478D01*
X0028042Y0036636D01*
X0028600Y0037194D01*
X0029300Y0038885D01*
X0029300Y0045515D01*
X0028600Y0047206D01*
X0027306Y0048500D01*
X0025615Y0049200D01*
X0023785Y0049200D01*
X0022094Y0048500D01*
X0020209Y0045779D02*
X0014900Y0045779D01*
X0014900Y0043381D02*
X0020100Y0043381D01*
X0020100Y0040982D02*
X0014900Y0040982D01*
X0014900Y0038584D02*
X0020225Y0038584D01*
X0020907Y0036185D02*
X0014900Y0036185D01*
X0014900Y0033787D02*
X0019200Y0033787D01*
X0019200Y0031388D02*
X0014900Y0031388D01*
X0014900Y0028990D02*
X0020132Y0028990D01*
X0014900Y0026591D02*
X0032014Y0026591D01*
X0030139Y0024193D02*
X0014900Y0024193D01*
X0014900Y0021794D02*
X0029800Y0021794D01*
X0029800Y0019396D02*
X0014900Y0019396D01*
X0014900Y0016997D02*
X0029800Y0016997D01*
X0039600Y0016997D02*
X0039800Y0016997D01*
X0039800Y0019396D02*
X0039600Y0019396D01*
X0039600Y0021794D02*
X0039800Y0021794D01*
X0040139Y0024193D02*
X0039261Y0024193D01*
X0037386Y0026591D02*
X0042014Y0026591D01*
X0047386Y0026591D02*
X0052132Y0026591D01*
X0050132Y0028990D02*
X0029268Y0028990D01*
X0030200Y0031388D02*
X0049200Y0031388D01*
X0049200Y0033787D02*
X0030200Y0033787D01*
X0032094Y0035900D02*
X0033785Y0035200D01*
X0035615Y0035200D01*
X0037306Y0035900D01*
X0038600Y0037194D01*
X0039300Y0038885D01*
X0039300Y0045515D01*
X0038600Y0047206D01*
X0037306Y0048500D01*
X0035615Y0049200D01*
X0033785Y0049200D01*
X0032094Y0048500D01*
X0030800Y0047206D01*
X0030100Y0045515D01*
X0030100Y0038885D01*
X0030800Y0037194D01*
X0032094Y0035900D01*
X0031809Y0036185D02*
X0028493Y0036185D01*
X0029175Y0038584D02*
X0030225Y0038584D01*
X0030100Y0040982D02*
X0029300Y0040982D01*
X0029300Y0043381D02*
X0030100Y0043381D01*
X0030209Y0045779D02*
X0029191Y0045779D01*
X0027628Y0048178D02*
X0031772Y0048178D01*
X0034228Y0051103D02*
X0035201Y0050700D01*
X0036256Y0050700D01*
X0037119Y0051058D01*
X0037983Y0050700D01*
X0044174Y0050700D01*
X0045148Y0051103D01*
X0045894Y0051849D01*
X0046297Y0052823D01*
X0046297Y0053877D01*
X0046017Y0054553D01*
X0051697Y0054553D01*
X0051697Y0054107D01*
X0051860Y0053715D01*
X0052101Y0053133D01*
X0052846Y0052388D01*
X0052846Y0052388D01*
X0053385Y0051849D01*
X0053385Y0051849D01*
X0054131Y0051103D01*
X0055104Y0050700D01*
X0058728Y0050700D01*
X0059702Y0051103D01*
X0060447Y0051849D01*
X0060875Y0052277D01*
X0061304Y0051849D01*
X0062049Y0051103D01*
X0063023Y0050700D01*
X0066646Y0050700D01*
X0067620Y0051103D01*
X0068905Y0052388D01*
X0069650Y0053133D01*
X0070054Y0054107D01*
X0070054Y0054553D01*
X0075453Y0054553D01*
X0075453Y0054107D01*
X0075625Y0053692D01*
X0075857Y0053133D01*
X0075873Y0053118D01*
X0076602Y0052388D01*
X0076602Y0052388D01*
X0077141Y0051849D01*
X0077887Y0051103D01*
X0078861Y0050700D01*
X0082484Y0050700D01*
X0083458Y0051103D01*
X0083989Y0051635D01*
X0084521Y0051103D01*
X0085495Y0050700D01*
X0091687Y0050700D01*
X0092661Y0051103D01*
X0093193Y0051635D01*
X0093724Y0051103D01*
X0094698Y0050700D01*
X0098321Y0050700D01*
X0099295Y0051103D01*
X0099827Y0051635D01*
X0100359Y0051103D01*
X0101333Y0050700D01*
X0107525Y0050700D01*
X0108499Y0051103D01*
X0109244Y0051849D01*
X0109647Y0052823D01*
X0109647Y0053877D01*
X0109244Y0054851D01*
X0106973Y0057122D01*
X0107525Y0057122D01*
X0108499Y0057526D01*
X0109244Y0058271D01*
X0109647Y0059245D01*
X0109647Y0060299D01*
X0109244Y0061273D01*
X0107960Y0062558D01*
X0107230Y0063287D01*
X0107214Y0063303D01*
X0107214Y0063303D01*
X0107214Y0063303D01*
X0106655Y0063535D01*
X0106240Y0063707D01*
X0102617Y0063707D01*
X0101643Y0063303D01*
X0100898Y0062558D01*
X0100898Y0062558D01*
X0100469Y0062129D01*
X0100041Y0062558D01*
X0099295Y0063303D01*
X0098713Y0063544D01*
X0098321Y0063707D01*
X0094698Y0063707D01*
X0093724Y0063303D01*
X0092440Y0062019D01*
X0091908Y0061487D01*
X0090838Y0062558D01*
X0090092Y0063303D01*
X0089118Y0063707D01*
X0088064Y0063707D01*
X0087090Y0063303D01*
X0086345Y0062558D01*
X0085941Y0061584D01*
X0085941Y0056000D01*
X0085611Y0056000D01*
X0085653Y0056102D01*
X0085847Y0056490D01*
X0085854Y0056586D01*
X0085891Y0056676D01*
X0085891Y0057109D01*
X0085922Y0057541D01*
X0085891Y0057633D01*
X0085891Y0061584D01*
X0085488Y0062558D01*
X0084742Y0063303D01*
X0083768Y0063707D01*
X0077576Y0063707D01*
X0076602Y0063303D01*
X0075857Y0062558D01*
X0075453Y0061584D01*
X0075453Y0060529D01*
X0075734Y0059853D01*
X0070054Y0059853D01*
X0070054Y0060299D01*
X0069650Y0061273D01*
X0068905Y0062019D01*
X0068905Y0062019D01*
X0068366Y0062558D01*
X0067620Y0063303D01*
X0067038Y0063544D01*
X0066646Y0063707D01*
X0063023Y0063707D01*
X0062049Y0063303D01*
X0060765Y0062019D01*
X0060019Y0061273D01*
X0059768Y0060667D01*
X0058856Y0061579D01*
X0058573Y0061907D01*
X0058486Y0061950D01*
X0058417Y0062019D01*
X0058017Y0062184D01*
X0055061Y0063663D01*
X0054009Y0063737D01*
X0053009Y0063404D01*
X0052213Y0062713D01*
X0051741Y0061770D01*
X0051666Y0060719D01*
X0051955Y0059853D01*
X0046297Y0059853D01*
X0046297Y0060299D01*
X0045894Y0061273D01*
X0044610Y0062558D01*
X0043880Y0063287D01*
X0043864Y0063303D01*
X0043305Y0063535D01*
X0042890Y0063707D01*
X0039267Y0063707D01*
X0038293Y0063303D01*
X0037761Y0062771D01*
X0037230Y0063303D01*
X0036256Y0063707D01*
X0030064Y0063707D01*
X0029090Y0063303D01*
X0028344Y0062558D01*
X0027941Y0061584D01*
X0027941Y0059245D01*
X0028344Y0058271D01*
X0033079Y0053537D01*
X0033079Y0052823D01*
X0033482Y0051849D01*
X0034228Y0051103D01*
X0033079Y0052975D02*
X0014900Y0052975D01*
X0014900Y0055373D02*
X0031242Y0055373D01*
X0028844Y0057772D02*
X0014900Y0057772D01*
X0014900Y0060170D02*
X0027941Y0060170D01*
X0028355Y0062569D02*
X0014900Y0062569D01*
X0028671Y0067366D02*
X0030729Y0067366D01*
X0030800Y0067194D02*
X0032094Y0065900D01*
X0033785Y0065200D01*
X0035615Y0065200D01*
X0037306Y0065900D01*
X0038600Y0067194D01*
X0039300Y0068885D01*
X0039300Y0075515D01*
X0038600Y0077206D01*
X0037306Y0078500D01*
X0035615Y0079200D01*
X0033785Y0079200D01*
X0032094Y0078500D01*
X0030800Y0077206D01*
X0030100Y0075515D01*
X0030100Y0068885D01*
X0030800Y0067194D01*
X0030100Y0069764D02*
X0029300Y0069764D01*
X0029300Y0072163D02*
X0030100Y0072163D01*
X0030100Y0074561D02*
X0029300Y0074561D01*
X0028702Y0076960D02*
X0030698Y0076960D01*
X0030812Y0079358D02*
X0043588Y0079358D01*
X0040698Y0076960D02*
X0038702Y0076960D01*
X0039300Y0074561D02*
X0040100Y0074561D01*
X0040100Y0072163D02*
X0039300Y0072163D01*
X0039300Y0069764D02*
X0040100Y0069764D01*
X0040729Y0067366D02*
X0038671Y0067366D01*
X0043864Y0063303D02*
X0043864Y0063303D01*
X0044598Y0062569D02*
X0052140Y0062569D01*
X0051849Y0060170D02*
X0046297Y0060170D01*
X0044610Y0062558D02*
X0044610Y0062558D01*
X0048671Y0067366D02*
X0050729Y0067366D01*
X0050100Y0069764D02*
X0049300Y0069764D01*
X0049300Y0072163D02*
X0050100Y0072163D01*
X0050100Y0074561D02*
X0049300Y0074561D01*
X0048702Y0076960D02*
X0050698Y0076960D01*
X0056412Y0079358D02*
X0111500Y0079358D01*
X0111500Y0081757D02*
X0057989Y0081757D01*
X0058200Y0084155D02*
X0111500Y0084155D01*
X0111500Y0086554D02*
X0057100Y0086554D01*
X0062771Y0091351D02*
X0014900Y0091351D01*
X0014900Y0093749D02*
X0061700Y0093749D01*
X0061700Y0096148D02*
X0054587Y0096148D01*
X0057535Y0098546D02*
X0063268Y0098546D01*
X0071132Y0098546D02*
X0073268Y0098546D01*
X0081132Y0098546D02*
X0090768Y0098546D01*
X0098632Y0098546D02*
X0100768Y0098546D01*
X0100271Y0091351D02*
X0099129Y0091351D01*
X0090271Y0091351D02*
X0081629Y0091351D01*
X0072771Y0091351D02*
X0071629Y0091351D01*
X0073785Y0079200D02*
X0072094Y0078500D01*
X0070800Y0077206D01*
X0070100Y0075515D01*
X0070100Y0068885D01*
X0070800Y0067194D01*
X0072094Y0065900D01*
X0073785Y0065200D01*
X0075615Y0065200D01*
X0077306Y0065900D01*
X0078600Y0067194D01*
X0079300Y0068885D01*
X0079300Y0075515D01*
X0078600Y0077206D01*
X0077306Y0078500D01*
X0075615Y0079200D01*
X0073785Y0079200D01*
X0070698Y0076960D02*
X0068702Y0076960D01*
X0068600Y0077206D02*
X0067306Y0078500D01*
X0065615Y0079200D01*
X0063785Y0079200D01*
X0062094Y0078500D01*
X0060800Y0077206D01*
X0060100Y0075515D01*
X0060100Y0068885D01*
X0060800Y0067194D01*
X0062094Y0065900D01*
X0063785Y0065200D01*
X0065615Y0065200D01*
X0067306Y0065900D01*
X0068600Y0067194D01*
X0069300Y0068885D01*
X0069300Y0075515D01*
X0068600Y0077206D01*
X0069300Y0074561D02*
X0070100Y0074561D01*
X0070100Y0072163D02*
X0069300Y0072163D01*
X0069300Y0069764D02*
X0070100Y0069764D01*
X0070729Y0067366D02*
X0068671Y0067366D01*
X0068355Y0062569D02*
X0075868Y0062569D01*
X0075602Y0060170D02*
X0070054Y0060170D01*
X0068366Y0062558D02*
X0068366Y0062558D01*
X0061315Y0062569D02*
X0057248Y0062569D01*
X0058671Y0067366D02*
X0060729Y0067366D01*
X0060100Y0069764D02*
X0059300Y0069764D01*
X0059300Y0072163D02*
X0060100Y0072163D01*
X0060100Y0074561D02*
X0059300Y0074561D01*
X0058702Y0076960D02*
X0060698Y0076960D01*
X0078702Y0076960D02*
X0080740Y0076960D01*
X0080766Y0077011D02*
X0080437Y0076366D01*
X0080213Y0075677D01*
X0080100Y0074962D01*
X0080100Y0072200D01*
X0084700Y0072200D01*
X0089300Y0072200D01*
X0089300Y0074962D01*
X0089187Y0075677D01*
X0088963Y0076366D01*
X0088634Y0077011D01*
X0088209Y0077597D01*
X0087697Y0078109D01*
X0087111Y0078534D01*
X0086466Y0078863D01*
X0085777Y0079087D01*
X0085062Y0079200D01*
X0084700Y0079200D01*
X0084700Y0072200D01*
X0084700Y0072200D01*
X0084700Y0072200D01*
X0089300Y0072200D01*
X0089300Y0069438D01*
X0089187Y0068723D01*
X0088963Y0068034D01*
X0088634Y0067389D01*
X0088209Y0066803D01*
X0087697Y0066291D01*
X0087111Y0065866D01*
X0086466Y0065537D01*
X0085777Y0065313D01*
X0085062Y0065200D01*
X0084700Y0065200D01*
X0084700Y0072200D01*
X0084700Y0072200D01*
X0084700Y0072200D01*
X0084700Y0079200D01*
X0084338Y0079200D01*
X0083623Y0079087D01*
X0082934Y0078863D01*
X0082289Y0078534D01*
X0081703Y0078109D01*
X0081191Y0077597D01*
X0080766Y0077011D01*
X0080100Y0074561D02*
X0079300Y0074561D01*
X0079300Y0072163D02*
X0080100Y0072163D01*
X0080100Y0072200D02*
X0080100Y0069438D01*
X0080213Y0068723D01*
X0080437Y0068034D01*
X0080766Y0067389D01*
X0081191Y0066803D01*
X0081703Y0066291D01*
X0082289Y0065866D01*
X0082934Y0065537D01*
X0083623Y0065313D01*
X0084338Y0065200D01*
X0084700Y0065200D01*
X0084700Y0072200D01*
X0080100Y0072200D01*
X0080100Y0069764D02*
X0079300Y0069764D01*
X0078671Y0067366D02*
X0080783Y0067366D01*
X0084700Y0067366D02*
X0084700Y0067366D01*
X0084700Y0069764D02*
X0084700Y0069764D01*
X0084700Y0072163D02*
X0084700Y0072163D01*
X0084700Y0074561D02*
X0084700Y0074561D01*
X0084700Y0076960D02*
X0084700Y0076960D01*
X0088660Y0076960D02*
X0090698Y0076960D01*
X0090800Y0077206D02*
X0090100Y0075515D01*
X0090100Y0068885D01*
X0090800Y0067194D01*
X0092094Y0065900D01*
X0093785Y0065200D01*
X0095615Y0065200D01*
X0097306Y0065900D01*
X0098600Y0067194D01*
X0099300Y0068885D01*
X0099300Y0075515D01*
X0098600Y0077206D01*
X0097306Y0078500D01*
X0095615Y0079200D01*
X0093785Y0079200D01*
X0092094Y0078500D01*
X0090800Y0077206D01*
X0090100Y0074561D02*
X0089300Y0074561D01*
X0089300Y0072163D02*
X0090100Y0072163D01*
X0090100Y0069764D02*
X0089300Y0069764D01*
X0088617Y0067366D02*
X0090729Y0067366D01*
X0090827Y0062569D02*
X0092990Y0062569D01*
X0092440Y0062019D02*
X0092440Y0062019D01*
X0086356Y0062569D02*
X0085477Y0062569D01*
X0085891Y0060170D02*
X0085941Y0060170D01*
X0085891Y0057772D02*
X0085941Y0057772D01*
X0077141Y0051849D02*
X0077141Y0051849D01*
X0076016Y0052975D02*
X0069492Y0052975D01*
X0067306Y0048500D02*
X0065615Y0049200D01*
X0063785Y0049200D01*
X0062094Y0048500D01*
X0060800Y0047206D01*
X0060100Y0045515D01*
X0060100Y0038885D01*
X0060800Y0037194D01*
X0062094Y0035900D01*
X0063785Y0035200D01*
X0065615Y0035200D01*
X0067306Y0035900D01*
X0068600Y0037194D01*
X0069300Y0038885D01*
X0069300Y0045515D01*
X0068600Y0047206D01*
X0067306Y0048500D01*
X0067628Y0048178D02*
X0071772Y0048178D01*
X0072094Y0048500D02*
X0070800Y0047206D01*
X0070100Y0045515D01*
X0070100Y0038885D01*
X0070800Y0037194D01*
X0072094Y0035900D01*
X0073785Y0035200D01*
X0075615Y0035200D01*
X0077306Y0035900D01*
X0078600Y0037194D01*
X0079300Y0038885D01*
X0079300Y0045515D01*
X0078600Y0047206D01*
X0077306Y0048500D01*
X0075615Y0049200D01*
X0073785Y0049200D01*
X0072094Y0048500D01*
X0070209Y0045779D02*
X0069191Y0045779D01*
X0069300Y0043381D02*
X0070100Y0043381D01*
X0070100Y0040982D02*
X0069300Y0040982D01*
X0069175Y0038584D02*
X0070225Y0038584D01*
X0071809Y0036185D02*
X0067590Y0036185D01*
X0069216Y0033787D02*
X0060200Y0033787D01*
X0060200Y0031388D02*
X0067200Y0031388D01*
X0067200Y0031771D02*
X0067200Y0029700D01*
X0072200Y0029700D01*
X0072200Y0029700D01*
X0072200Y0029700D01*
X0072200Y0034700D01*
X0070129Y0034700D01*
X0067200Y0031771D01*
X0067200Y0029700D02*
X0067200Y0027629D01*
X0070129Y0024700D01*
X0072200Y0024700D01*
X0072200Y0029700D01*
X0067200Y0029700D01*
X0067200Y0028990D02*
X0059268Y0028990D01*
X0057268Y0026591D02*
X0062014Y0026591D01*
X0060139Y0024193D02*
X0059270Y0024193D01*
X0059600Y0021794D02*
X0059800Y0021794D01*
X0059800Y0019396D02*
X0059600Y0019396D01*
X0059600Y0016997D02*
X0059800Y0016997D01*
X0069600Y0016997D02*
X0178201Y0016997D01*
X0178201Y0019396D02*
X0083921Y0019396D01*
X0086320Y0021794D02*
X0096601Y0021794D01*
X0096300Y0022094D02*
X0097594Y0020800D01*
X0099285Y0020100D01*
X0101115Y0020100D01*
X0102806Y0020800D01*
X0104100Y0022094D01*
X0104800Y0023785D01*
X0104800Y0025615D01*
X0104100Y0027306D01*
X0102806Y0028600D01*
X0101115Y0029300D01*
X0099285Y0029300D01*
X0097594Y0028600D01*
X0096300Y0027306D01*
X0095600Y0025615D01*
X0095600Y0023785D01*
X0096300Y0022094D01*
X0095600Y0024193D02*
X0088718Y0024193D01*
X0090400Y0026591D02*
X0096004Y0026591D01*
X0098536Y0028990D02*
X0090400Y0028990D01*
X0090400Y0031388D02*
X0132200Y0031388D01*
X0132200Y0031771D02*
X0132200Y0027629D01*
X0135129Y0024700D01*
X0139271Y0024700D01*
X0142200Y0027629D01*
X0145129Y0024700D01*
X0147200Y0024700D01*
X0149271Y0024700D01*
X0150253Y0025682D01*
X0150253Y0023780D01*
X0150953Y0022090D01*
X0152247Y0020796D01*
X0153938Y0020095D01*
X0155768Y0020095D01*
X0157458Y0020796D01*
X0158752Y0022090D01*
X0159453Y0023780D01*
X0159453Y0030410D01*
X0158752Y0032101D01*
X0157458Y0033395D01*
X0155768Y0034095D01*
X0153938Y0034095D01*
X0152247Y0033395D01*
X0151412Y0032559D01*
X0149271Y0034700D01*
X0147200Y0034700D01*
X0147200Y0029700D01*
X0147200Y0029700D01*
X0147200Y0024700D01*
X0147200Y0029700D01*
X0147200Y0029700D01*
X0147200Y0029700D01*
X0142200Y0029700D01*
X0142200Y0031771D01*
X0145129Y0034700D01*
X0147200Y0034700D01*
X0147200Y0029700D01*
X0142200Y0029700D01*
X0142200Y0027629D01*
X0142200Y0031771D01*
X0139271Y0034700D01*
X0135129Y0034700D01*
X0132200Y0031771D01*
X0132200Y0028990D02*
X0120864Y0028990D01*
X0120115Y0029300D02*
X0121806Y0028600D01*
X0123100Y0027306D01*
X0123800Y0025615D01*
X0123800Y0023785D01*
X0123100Y0022094D01*
X0121806Y0020800D01*
X0120115Y0020100D01*
X0118285Y0020100D01*
X0116594Y0020800D01*
X0115300Y0022094D01*
X0114600Y0023785D01*
X0114600Y0025615D01*
X0115300Y0027306D01*
X0116594Y0028600D01*
X0118285Y0029300D01*
X0120115Y0029300D01*
X0117536Y0028990D02*
X0101864Y0028990D01*
X0104396Y0026591D02*
X0115004Y0026591D01*
X0114600Y0024193D02*
X0104800Y0024193D01*
X0103799Y0021794D02*
X0115601Y0021794D01*
X0122799Y0021794D02*
X0151249Y0021794D01*
X0150253Y0024193D02*
X0123800Y0024193D01*
X0123396Y0026591D02*
X0133238Y0026591D01*
X0141162Y0026591D02*
X0143238Y0026591D01*
X0142200Y0028990D02*
X0142200Y0028990D01*
X0142200Y0031388D02*
X0142200Y0031388D01*
X0140184Y0033787D02*
X0144216Y0033787D01*
X0143785Y0035200D02*
X0145615Y0035200D01*
X0147306Y0035900D01*
X0148600Y0037194D01*
X0149300Y0038885D01*
X0149300Y0045515D01*
X0148600Y0047206D01*
X0147306Y0048500D01*
X0145615Y0049200D01*
X0143785Y0049200D01*
X0142094Y0048500D01*
X0140800Y0047206D01*
X0140100Y0045515D01*
X0140100Y0038885D01*
X0140800Y0037194D01*
X0142094Y0035900D01*
X0143785Y0035200D01*
X0141809Y0036185D02*
X0137590Y0036185D01*
X0137306Y0035900D02*
X0138600Y0037194D01*
X0139300Y0038885D01*
X0139300Y0045515D01*
X0138600Y0047206D01*
X0137306Y0048500D01*
X0135615Y0049200D01*
X0133785Y0049200D01*
X0132094Y0048500D01*
X0130800Y0047206D01*
X0130100Y0045515D01*
X0130100Y0038885D01*
X0130800Y0037194D01*
X0132094Y0035900D01*
X0133785Y0035200D01*
X0135615Y0035200D01*
X0137306Y0035900D01*
X0139175Y0038584D02*
X0140225Y0038584D01*
X0140100Y0040982D02*
X0139300Y0040982D01*
X0139300Y0043381D02*
X0140100Y0043381D01*
X0140209Y0045779D02*
X0139191Y0045779D01*
X0137628Y0048178D02*
X0141772Y0048178D01*
X0147628Y0048178D02*
X0151772Y0048178D01*
X0150209Y0045779D02*
X0149191Y0045779D01*
X0149300Y0043381D02*
X0150100Y0043381D01*
X0150100Y0040982D02*
X0149300Y0040982D01*
X0149175Y0038584D02*
X0150225Y0038584D01*
X0151809Y0036185D02*
X0147590Y0036185D01*
X0147200Y0033787D02*
X0147200Y0033787D01*
X0147200Y0031388D02*
X0147200Y0031388D01*
X0147200Y0028990D02*
X0147200Y0028990D01*
X0147200Y0026591D02*
X0147200Y0026591D01*
X0150184Y0033787D02*
X0153193Y0033787D01*
X0156513Y0033787D02*
X0163017Y0033787D01*
X0162929Y0033758D02*
X0162284Y0033430D01*
X0161699Y0033004D01*
X0161187Y0032492D01*
X0160761Y0031906D01*
X0160432Y0031261D01*
X0160209Y0030572D01*
X0160095Y0029857D01*
X0160095Y0027095D01*
X0160095Y0024333D01*
X0160209Y0023618D01*
X0160432Y0022929D01*
X0160761Y0022284D01*
X0161187Y0021699D01*
X0161699Y0021187D01*
X0162284Y0020761D01*
X0162929Y0020432D01*
X0163618Y0020209D01*
X0164333Y0020095D01*
X0164695Y0020095D01*
X0164695Y0027095D01*
X0164695Y0027095D01*
X0160095Y0027095D01*
X0164695Y0027095D01*
X0164695Y0027095D01*
X0164695Y0020095D01*
X0165057Y0020095D01*
X0165772Y0020209D01*
X0166461Y0020432D01*
X0167106Y0020761D01*
X0167692Y0021187D01*
X0168204Y0021699D01*
X0168630Y0022284D01*
X0168958Y0022929D01*
X0169182Y0023618D01*
X0169295Y0024333D01*
X0169295Y0027095D01*
X0164695Y0027095D01*
X0164695Y0027095D01*
X0164695Y0034095D01*
X0164333Y0034095D01*
X0163618Y0033982D01*
X0162929Y0033758D01*
X0164695Y0033787D02*
X0164695Y0033787D01*
X0164695Y0034095D02*
X0164695Y0027095D01*
X0164695Y0027095D01*
X0169295Y0027095D01*
X0169295Y0029857D01*
X0169182Y0030572D01*
X0168958Y0031261D01*
X0168630Y0031906D01*
X0168204Y0032492D01*
X0167692Y0033004D01*
X0167106Y0033430D01*
X0166461Y0033758D01*
X0165772Y0033982D01*
X0165057Y0034095D01*
X0164695Y0034095D01*
X0166374Y0033787D02*
X0172878Y0033787D01*
X0176198Y0033787D02*
X0178201Y0033787D01*
X0178201Y0036185D02*
X0157590Y0036185D01*
X0159175Y0038584D02*
X0178201Y0038584D01*
X0178201Y0040982D02*
X0175846Y0040982D01*
X0177524Y0043381D02*
X0178201Y0043381D01*
X0178201Y0045779D02*
X0177624Y0045779D01*
X0178201Y0048178D02*
X0176086Y0048178D01*
X0159994Y0057772D02*
X0154556Y0057772D01*
X0154915Y0055373D02*
X0159200Y0055373D01*
X0159200Y0052975D02*
X0155840Y0052975D01*
X0140123Y0057772D02*
X0138605Y0057772D01*
X0138098Y0060170D02*
X0140123Y0060170D01*
X0141822Y0062569D02*
X0137398Y0062569D01*
X0132099Y0062569D02*
X0107949Y0062569D01*
X0107960Y0062558D02*
X0107960Y0062558D01*
X0109647Y0060170D02*
X0116917Y0060170D01*
X0115064Y0057772D02*
X0108745Y0057772D01*
X0108722Y0055373D02*
X0115047Y0055373D01*
X0115609Y0052975D02*
X0109647Y0052975D01*
X0107306Y0048500D02*
X0105615Y0049200D01*
X0103785Y0049200D01*
X0102094Y0048500D01*
X0100800Y0047206D01*
X0100100Y0045515D01*
X0100100Y0038885D01*
X0100800Y0037194D01*
X0102094Y0035900D01*
X0103785Y0035200D01*
X0105615Y0035200D01*
X0107306Y0035900D01*
X0108600Y0037194D01*
X0109300Y0038885D01*
X0109300Y0045515D01*
X0108600Y0047206D01*
X0107306Y0048500D01*
X0107628Y0048178D02*
X0111772Y0048178D01*
X0112094Y0048500D02*
X0110800Y0047206D01*
X0110100Y0045515D01*
X0110100Y0038885D01*
X0110800Y0037194D01*
X0112094Y0035900D01*
X0113785Y0035200D01*
X0115615Y0035200D01*
X0117306Y0035900D01*
X0118600Y0037194D01*
X0119300Y0038885D01*
X0119300Y0045515D01*
X0118600Y0047206D01*
X0117306Y0048500D01*
X0115615Y0049200D01*
X0113785Y0049200D01*
X0112094Y0048500D01*
X0110209Y0045779D02*
X0109191Y0045779D01*
X0109300Y0043381D02*
X0110100Y0043381D01*
X0110100Y0040982D02*
X0109300Y0040982D01*
X0109175Y0038584D02*
X0110225Y0038584D01*
X0111809Y0036185D02*
X0107590Y0036185D01*
X0101809Y0036185D02*
X0097551Y0036185D01*
X0097697Y0036291D02*
X0098209Y0036803D01*
X0098634Y0037389D01*
X0098963Y0038034D01*
X0099187Y0038723D01*
X0099300Y0039438D01*
X0099300Y0042200D01*
X0099300Y0044962D01*
X0099187Y0045677D01*
X0098963Y0046366D01*
X0098634Y0047011D01*
X0098209Y0047597D01*
X0097697Y0048109D01*
X0097111Y0048534D01*
X0096466Y0048863D01*
X0095777Y0049087D01*
X0095062Y0049200D01*
X0094700Y0049200D01*
X0094700Y0042200D01*
X0099300Y0042200D01*
X0094700Y0042200D01*
X0094700Y0042200D01*
X0094700Y0042200D01*
X0094700Y0035200D01*
X0095062Y0035200D01*
X0095777Y0035313D01*
X0096466Y0035537D01*
X0097111Y0035866D01*
X0097697Y0036291D01*
X0099141Y0038584D02*
X0100225Y0038584D01*
X0100100Y0040982D02*
X0099300Y0040982D01*
X0099300Y0043381D02*
X0100100Y0043381D01*
X0100209Y0045779D02*
X0099154Y0045779D01*
X0097602Y0048178D02*
X0101772Y0048178D01*
X0094700Y0048178D02*
X0094700Y0048178D01*
X0094700Y0049200D02*
X0094338Y0049200D01*
X0093623Y0049087D01*
X0092934Y0048863D01*
X0092289Y0048534D01*
X0091703Y0048109D01*
X0091191Y0047597D01*
X0090766Y0047011D01*
X0090437Y0046366D01*
X0090213Y0045677D01*
X0090100Y0044962D01*
X0090100Y0042200D01*
X0094700Y0042200D01*
X0094700Y0042200D01*
X0094700Y0042200D01*
X0094700Y0049200D01*
X0091798Y0048178D02*
X0087628Y0048178D01*
X0089191Y0045779D02*
X0090246Y0045779D01*
X0090100Y0043381D02*
X0089300Y0043381D01*
X0090100Y0042200D02*
X0090100Y0039438D01*
X0090213Y0038723D01*
X0090437Y0038034D01*
X0090766Y0037389D01*
X0091191Y0036803D01*
X0091703Y0036291D01*
X0092289Y0035866D01*
X0092934Y0035537D01*
X0093623Y0035313D01*
X0094338Y0035200D01*
X0094700Y0035200D01*
X0094700Y0042200D01*
X0090100Y0042200D01*
X0090100Y0040982D02*
X0089300Y0040982D01*
X0090091Y0038584D02*
X0090258Y0038584D01*
X0090400Y0036185D02*
X0091849Y0036185D01*
X0094700Y0036185D02*
X0094700Y0036185D01*
X0094700Y0038584D02*
X0094700Y0038584D01*
X0094700Y0040982D02*
X0094700Y0040982D01*
X0094700Y0043381D02*
X0094700Y0043381D01*
X0094700Y0045779D02*
X0094700Y0045779D01*
X0081772Y0048178D02*
X0077628Y0048178D01*
X0079191Y0045779D02*
X0080209Y0045779D01*
X0080100Y0043381D02*
X0079300Y0043381D01*
X0079300Y0040982D02*
X0080100Y0040982D01*
X0080225Y0038584D02*
X0079175Y0038584D01*
X0077590Y0036185D02*
X0081809Y0036185D01*
X0079216Y0033787D02*
X0075184Y0033787D01*
X0072200Y0033787D02*
X0072200Y0033787D01*
X0072200Y0031388D02*
X0072200Y0031388D01*
X0072200Y0028990D02*
X0072200Y0028990D01*
X0072200Y0026591D02*
X0072200Y0026591D01*
X0069261Y0024193D02*
X0079667Y0024193D01*
X0078238Y0026591D02*
X0076162Y0026591D01*
X0077200Y0028990D02*
X0077200Y0028990D01*
X0077200Y0031388D02*
X0077200Y0031388D01*
X0068238Y0026591D02*
X0067386Y0026591D01*
X0061809Y0036185D02*
X0058493Y0036185D01*
X0059175Y0038584D02*
X0060225Y0038584D01*
X0060100Y0040982D02*
X0059300Y0040982D01*
X0059300Y0043381D02*
X0060100Y0043381D01*
X0060209Y0045779D02*
X0059191Y0045779D01*
X0057628Y0048178D02*
X0061772Y0048178D01*
X0061304Y0051849D02*
X0061304Y0051849D01*
X0060447Y0051849D02*
X0060447Y0051849D01*
X0052259Y0052975D02*
X0046297Y0052975D01*
X0045615Y0049200D02*
X0043785Y0049200D01*
X0042094Y0048500D01*
X0040800Y0047206D01*
X0040100Y0045515D01*
X0040100Y0038885D01*
X0040800Y0037194D01*
X0042094Y0035900D01*
X0043785Y0035200D01*
X0045615Y0035200D01*
X0047306Y0035900D01*
X0048600Y0037194D01*
X0049300Y0038885D01*
X0049300Y0045515D01*
X0048600Y0047206D01*
X0047306Y0048500D01*
X0045615Y0049200D01*
X0047628Y0048178D02*
X0051772Y0048178D01*
X0050209Y0045779D02*
X0049191Y0045779D01*
X0049300Y0043381D02*
X0050100Y0043381D01*
X0050100Y0040982D02*
X0049300Y0040982D01*
X0049175Y0038584D02*
X0050225Y0038584D01*
X0050907Y0036185D02*
X0047590Y0036185D01*
X0041809Y0036185D02*
X0037590Y0036185D01*
X0039175Y0038584D02*
X0040225Y0038584D01*
X0040100Y0040982D02*
X0039300Y0040982D01*
X0039300Y0043381D02*
X0040100Y0043381D01*
X0040209Y0045779D02*
X0039191Y0045779D01*
X0037628Y0048178D02*
X0041772Y0048178D01*
X0075857Y0053133D02*
X0075857Y0053133D01*
X0100030Y0062569D02*
X0100909Y0062569D01*
X0100041Y0062558D02*
X0100041Y0062558D01*
X0102094Y0065900D02*
X0103785Y0065200D01*
X0105615Y0065200D01*
X0107306Y0065900D01*
X0108600Y0067194D01*
X0109300Y0068885D01*
X0109300Y0075515D01*
X0108600Y0077206D01*
X0107306Y0078500D01*
X0105615Y0079200D01*
X0103785Y0079200D01*
X0102094Y0078500D01*
X0100800Y0077206D01*
X0100100Y0075515D01*
X0100100Y0068885D01*
X0100800Y0067194D01*
X0102094Y0065900D01*
X0100729Y0067366D02*
X0098671Y0067366D01*
X0099300Y0069764D02*
X0100100Y0069764D01*
X0100100Y0072163D02*
X0099300Y0072163D01*
X0099300Y0074561D02*
X0100100Y0074561D01*
X0100698Y0076960D02*
X0098702Y0076960D01*
X0108702Y0076960D02*
X0110698Y0076960D01*
X0110100Y0074561D02*
X0109300Y0074561D01*
X0109300Y0072163D02*
X0110100Y0072163D01*
X0110100Y0069764D02*
X0109300Y0069764D01*
X0108671Y0067366D02*
X0110729Y0067366D01*
X0118671Y0067366D02*
X0120729Y0067366D01*
X0120800Y0067194D02*
X0122094Y0065900D01*
X0123785Y0065200D01*
X0125615Y0065200D01*
X0127306Y0065900D01*
X0128600Y0067194D01*
X0129300Y0068885D01*
X0129300Y0075515D01*
X0128600Y0077206D01*
X0127306Y0078500D01*
X0125615Y0079200D01*
X0123785Y0079200D01*
X0122094Y0078500D01*
X0120800Y0077206D01*
X0120100Y0075515D01*
X0120100Y0068885D01*
X0120800Y0067194D01*
X0120100Y0069764D02*
X0119300Y0069764D01*
X0119300Y0072163D02*
X0120100Y0072163D01*
X0120100Y0074561D02*
X0119300Y0074561D01*
X0118702Y0076960D02*
X0120698Y0076960D01*
X0117900Y0079358D02*
X0162264Y0079358D01*
X0158600Y0077206D02*
X0157306Y0078500D01*
X0155615Y0079200D01*
X0153785Y0079200D01*
X0152094Y0078500D01*
X0150800Y0077206D01*
X0150100Y0075515D01*
X0150100Y0068885D01*
X0150800Y0067194D01*
X0152094Y0065900D01*
X0153785Y0065200D01*
X0155615Y0065200D01*
X0157306Y0065900D01*
X0158600Y0067194D01*
X0159300Y0068885D01*
X0159300Y0075515D01*
X0158600Y0077206D01*
X0158702Y0076960D02*
X0178201Y0076960D01*
X0178201Y0079358D02*
X0177136Y0079358D01*
X0172264Y0079358D02*
X0167136Y0079358D01*
X0169535Y0081757D02*
X0169865Y0081757D01*
X0178201Y0074561D02*
X0159300Y0074561D01*
X0159300Y0072163D02*
X0178201Y0072163D01*
X0178201Y0069764D02*
X0159300Y0069764D01*
X0158671Y0067366D02*
X0178201Y0067366D01*
X0178201Y0060170D02*
X0177008Y0060170D01*
X0150729Y0067366D02*
X0148671Y0067366D01*
X0148600Y0067194D02*
X0149300Y0068885D01*
X0149300Y0075515D01*
X0148600Y0077206D01*
X0147306Y0078500D01*
X0145615Y0079200D01*
X0143785Y0079200D01*
X0142094Y0078500D01*
X0140800Y0077206D01*
X0140100Y0075515D01*
X0140100Y0068885D01*
X0140800Y0067194D01*
X0142094Y0065900D01*
X0143785Y0065200D01*
X0145615Y0065200D01*
X0147306Y0065900D01*
X0148600Y0067194D01*
X0149300Y0069764D02*
X0150100Y0069764D01*
X0150100Y0072163D02*
X0149300Y0072163D01*
X0149300Y0074561D02*
X0150100Y0074561D01*
X0150698Y0076960D02*
X0148702Y0076960D01*
X0140698Y0076960D02*
X0138702Y0076960D01*
X0139300Y0074561D02*
X0140100Y0074561D01*
X0140100Y0072163D02*
X0139300Y0072163D01*
X0139300Y0069764D02*
X0140100Y0069764D01*
X0140729Y0067366D02*
X0138671Y0067366D01*
X0130729Y0067366D02*
X0128671Y0067366D01*
X0129300Y0069764D02*
X0130100Y0069764D01*
X0130100Y0072163D02*
X0129300Y0072163D01*
X0129300Y0074561D02*
X0130100Y0074561D01*
X0130698Y0076960D02*
X0128702Y0076960D01*
X0117900Y0081757D02*
X0140618Y0081757D01*
X0138219Y0084155D02*
X0117900Y0084155D01*
X0117900Y0086554D02*
X0135821Y0086554D01*
X0133422Y0088952D02*
X0117900Y0088952D01*
X0126629Y0091351D02*
X0127771Y0091351D01*
X0127200Y0097478D02*
X0124478Y0100200D01*
X0119922Y0100200D01*
X0117900Y0098178D01*
X0117900Y0100250D01*
X0135875Y0100250D01*
X0140737Y0095387D01*
X0141637Y0094487D01*
X0142813Y0094000D01*
X0144607Y0094000D01*
X0144433Y0093465D01*
X0144300Y0092625D01*
X0144300Y0092200D01*
X0149700Y0092200D01*
X0149700Y0086800D01*
X0150125Y0086800D01*
X0150965Y0086933D01*
X0151773Y0087196D01*
X0152530Y0087582D01*
X0153218Y0088081D01*
X0153819Y0088682D01*
X0154318Y0089370D01*
X0154704Y0090127D01*
X0154708Y0090140D01*
X0155122Y0089141D01*
X0156641Y0087622D01*
X0158626Y0086800D01*
X0159200Y0086800D01*
X0159200Y0086650D01*
X0144775Y0086650D01*
X0137700Y0093725D01*
X0137700Y0096978D01*
X0134478Y0100200D01*
X0129922Y0100200D01*
X0127200Y0097478D01*
X0126132Y0098546D02*
X0128268Y0098546D01*
X0136132Y0098546D02*
X0137578Y0098546D01*
X0137700Y0096148D02*
X0139977Y0096148D01*
X0137700Y0093749D02*
X0144526Y0093749D01*
X0144300Y0092200D02*
X0144300Y0091775D01*
X0144433Y0090935D01*
X0144696Y0090127D01*
X0145082Y0089370D01*
X0145581Y0088682D01*
X0146182Y0088081D01*
X0146870Y0087582D01*
X0147627Y0087196D01*
X0148435Y0086933D01*
X0149275Y0086800D01*
X0149700Y0086800D01*
X0149700Y0092200D01*
X0149700Y0092200D01*
X0149700Y0092200D01*
X0144300Y0092200D01*
X0144367Y0091351D02*
X0140075Y0091351D01*
X0142473Y0088952D02*
X0145385Y0088952D01*
X0149700Y0088952D02*
X0149700Y0088952D01*
X0149700Y0091351D02*
X0149700Y0091351D01*
X0154015Y0088952D02*
X0155311Y0088952D01*
X0144375Y0100945D02*
X0144231Y0100945D01*
X0144329Y0103343D02*
X0141832Y0103343D01*
X0139434Y0105742D02*
X0145605Y0105742D01*
X0118268Y0098546D02*
X0117900Y0098546D01*
X0123616Y0060170D02*
X0124835Y0060170D01*
X0123797Y0059989D02*
X0123797Y0059989D01*
X0123785Y0049200D02*
X0122094Y0048500D01*
X0120800Y0047206D01*
X0120100Y0045515D01*
X0120100Y0038885D01*
X0120800Y0037194D01*
X0122094Y0035900D01*
X0123785Y0035200D01*
X0125615Y0035200D01*
X0127306Y0035900D01*
X0128600Y0037194D01*
X0129300Y0038885D01*
X0129300Y0045515D01*
X0128600Y0047206D01*
X0127306Y0048500D01*
X0125615Y0049200D01*
X0123785Y0049200D01*
X0121772Y0048178D02*
X0117628Y0048178D01*
X0119191Y0045779D02*
X0120209Y0045779D01*
X0120100Y0043381D02*
X0119300Y0043381D01*
X0119300Y0040982D02*
X0120100Y0040982D01*
X0120225Y0038584D02*
X0119175Y0038584D01*
X0117590Y0036185D02*
X0121809Y0036185D01*
X0127590Y0036185D02*
X0131809Y0036185D01*
X0130225Y0038584D02*
X0129175Y0038584D01*
X0129300Y0040982D02*
X0130100Y0040982D01*
X0130100Y0043381D02*
X0129300Y0043381D01*
X0129191Y0045779D02*
X0130209Y0045779D01*
X0131772Y0048178D02*
X0127628Y0048178D01*
X0134216Y0033787D02*
X0090400Y0033787D01*
X0050130Y0024193D02*
X0049261Y0024193D01*
X0049600Y0021794D02*
X0049800Y0021794D01*
X0049800Y0019396D02*
X0049600Y0019396D01*
X0049600Y0016997D02*
X0049800Y0016997D01*
X0158457Y0021794D02*
X0161117Y0021794D01*
X0160118Y0024193D02*
X0159453Y0024193D01*
X0159453Y0026591D02*
X0160095Y0026591D01*
X0160095Y0028990D02*
X0159453Y0028990D01*
X0159048Y0031388D02*
X0160497Y0031388D01*
X0164695Y0031388D02*
X0164695Y0031388D01*
X0164695Y0028990D02*
X0164695Y0028990D01*
X0164695Y0026591D02*
X0164695Y0026591D01*
X0164695Y0024193D02*
X0164695Y0024193D01*
X0164695Y0021794D02*
X0164695Y0021794D01*
X0168273Y0021794D02*
X0170934Y0021794D01*
X0169938Y0024193D02*
X0169273Y0024193D01*
X0169295Y0026591D02*
X0169938Y0026591D01*
X0169938Y0028990D02*
X0169295Y0028990D01*
X0168894Y0031388D02*
X0170343Y0031388D01*
X0178142Y0021794D02*
X0178201Y0021794D01*
D21*
X0114700Y0072200D02*
X0114700Y0103450D01*
X0137200Y0103450D01*
X0143450Y0097200D01*
X0154700Y0097200D01*
X0159700Y0102200D01*
X0143450Y0083450D02*
X0132200Y0094700D01*
X0143450Y0083450D02*
X0163450Y0083450D01*
X0164700Y0084700D01*
X0094700Y0094700D02*
X0077200Y0094700D01*
X0050000Y0083300D02*
X0049700Y0083450D01*
X0024700Y0083450D01*
X0024400Y0083300D01*
X0084700Y0042200D02*
X0084700Y0039700D01*
X0087200Y0037200D01*
X0087200Y0027200D01*
X0080950Y0020950D01*
X0065950Y0020950D01*
X0064700Y0019700D01*
M02*
