%
M48
M72
T01C0.0280
T02C0.0320
T03C0.0354
T04C0.0360
T05C0.0400
%
T01
X16620Y4470
X17320Y4470
T02
X17470Y5470
X16470Y5470
X15470Y4220
X14470Y4220
X13470Y4220
X12470Y4220
X11470Y4220
X10470Y4220
X9470Y4220
X8470Y4220
X7470Y4220
X6470Y4220
X5470Y4220
X4470Y4220
X3470Y4220
X2470Y4220
X2470Y3220
X5470Y3220
X7220Y2970
X8220Y2970
X10020Y2470
X11920Y2470
X13720Y2970
X14720Y2970
X15485Y2710
X16470Y2710
X17454Y2710
X15470Y7220
X14470Y7220
X13470Y7220
X12470Y7220
X11470Y7220
X10470Y7220
X9470Y7220
X8470Y7220
X7470Y7220
X6470Y7220
X5470Y7220
X4470Y7220
X3470Y7220
X2470Y7220
X6720Y9470
X7720Y9470
X9470Y9470
X10470Y9470
X12220Y9470
X13220Y9470
X16470Y8470
X17470Y8470
T03
X16970Y9220
X15970Y9220
X14970Y9220
X14970Y10220
X15970Y10220
X16970Y10220
T04
X3470Y1970
X4470Y1970
X5470Y1970
X6470Y1970
T05
X5000Y8330
X2440Y8330
X2440Y10110
X5000Y10110
M30
