G75*
%MOIN*%
%OFA0B0*%
%FSLAX25Y25*%
%IPPOS*%
%LPD*%
%AMOC8*
5,1,8,0,0,1.08239X$1,22.5*
%
%ADD10C,0.01300*%
%ADD11OC8,0.06200*%
%ADD12C,0.05400*%
%ADD13C,0.07000*%
%ADD14OC8,0.07200*%
%ADD15C,0.05400*%
%ADD16C,0.06000*%
%ADD17OC8,0.05200*%
%ADD18C,0.05200*%
%ADD19C,0.06600*%
D10*
X0035529Y0053550D02*
X0035529Y0054768D01*
X0030658Y0059639D01*
X0030658Y0060856D01*
X0035529Y0060856D01*
X0038577Y0059639D02*
X0039794Y0060856D01*
X0042230Y0060856D01*
X0043447Y0059639D01*
X0046495Y0057203D02*
X0051366Y0057203D01*
X0054414Y0055985D02*
X0055632Y0057203D01*
X0059285Y0057203D01*
X0059285Y0054768D01*
X0058067Y0053550D01*
X0055632Y0053550D01*
X0054414Y0054768D01*
X0054414Y0055985D01*
X0056849Y0059639D02*
X0059285Y0057203D01*
X0056849Y0059639D02*
X0054414Y0060856D01*
X0062333Y0059639D02*
X0062333Y0054768D01*
X0063551Y0053550D01*
X0065986Y0053550D01*
X0067204Y0054768D01*
X0062333Y0059639D01*
X0063551Y0060856D01*
X0065986Y0060856D01*
X0067204Y0059639D01*
X0067204Y0054768D01*
X0070252Y0057203D02*
X0075122Y0057203D01*
X0078170Y0057203D02*
X0078170Y0054768D01*
X0079388Y0053550D01*
X0081823Y0053550D01*
X0083041Y0054768D01*
X0083041Y0057203D02*
X0080606Y0058421D01*
X0079388Y0058421D01*
X0078170Y0057203D01*
X0083041Y0057203D02*
X0083041Y0060856D01*
X0078170Y0060856D01*
X0088525Y0060856D02*
X0088525Y0053550D01*
X0090960Y0053550D02*
X0086089Y0053550D01*
X0090960Y0058421D02*
X0088525Y0060856D01*
X0094008Y0059639D02*
X0098879Y0054768D01*
X0097661Y0053550D01*
X0095226Y0053550D01*
X0094008Y0054768D01*
X0094008Y0059639D01*
X0095226Y0060856D01*
X0097661Y0060856D01*
X0098879Y0059639D01*
X0098879Y0054768D01*
X0101927Y0053550D02*
X0106797Y0053550D01*
X0101927Y0058421D01*
X0101927Y0059639D01*
X0103144Y0060856D01*
X0105580Y0060856D01*
X0106797Y0059639D01*
X0117764Y0057203D02*
X0117764Y0054768D01*
X0118982Y0053550D01*
X0121417Y0053550D01*
X0122635Y0054768D01*
X0122635Y0057203D01*
X0121417Y0058421D01*
X0118982Y0058421D01*
X0117764Y0057203D01*
X0125683Y0057203D02*
X0125683Y0053550D01*
X0125683Y0057203D02*
X0126901Y0058421D01*
X0130554Y0058421D01*
X0130554Y0053550D01*
X0133398Y0053550D02*
X0135833Y0053550D01*
X0134615Y0053550D02*
X0134615Y0058421D01*
X0135833Y0058421D01*
X0134615Y0060856D02*
X0134615Y0062074D01*
X0142840Y0059639D02*
X0142840Y0057203D01*
X0144058Y0055985D01*
X0147711Y0055985D01*
X0145276Y0055985D02*
X0142840Y0053550D01*
X0139792Y0053550D02*
X0138575Y0053550D01*
X0138575Y0054768D01*
X0139792Y0054768D01*
X0139792Y0053550D01*
X0147711Y0053550D02*
X0147711Y0060856D01*
X0144058Y0060856D01*
X0142840Y0059639D01*
X0150555Y0060856D02*
X0152990Y0060856D01*
X0151773Y0060856D02*
X0151773Y0053550D01*
X0152990Y0053550D02*
X0150555Y0053550D01*
X0043447Y0053550D02*
X0038577Y0058421D01*
X0038577Y0059639D01*
X0038577Y0053550D02*
X0043447Y0053550D01*
D11*
X0072200Y0029700D03*
X0082200Y0029700D03*
X0137200Y0029700D03*
X0147200Y0029700D03*
D12*
X0154853Y0029495D02*
X0154853Y0024695D01*
X0164695Y0024695D02*
X0164695Y0029495D01*
X0174538Y0029495D02*
X0174538Y0024695D01*
X0154700Y0039800D02*
X0154700Y0044600D01*
X0144700Y0044600D02*
X0144700Y0039800D01*
X0134700Y0039800D02*
X0134700Y0044600D01*
X0124700Y0044600D02*
X0124700Y0039800D01*
X0114700Y0039800D02*
X0114700Y0044600D01*
X0104700Y0044600D02*
X0104700Y0039800D01*
X0094700Y0039800D02*
X0094700Y0044600D01*
X0084700Y0044600D02*
X0084700Y0039800D01*
X0074700Y0039800D02*
X0074700Y0044600D01*
X0064700Y0044600D02*
X0064700Y0039800D01*
X0054700Y0039800D02*
X0054700Y0044600D01*
X0044700Y0044600D02*
X0044700Y0039800D01*
X0034700Y0039800D02*
X0034700Y0044600D01*
X0024700Y0044600D02*
X0024700Y0039800D01*
X0024700Y0069800D02*
X0024700Y0074600D01*
X0034700Y0074600D02*
X0034700Y0069800D01*
X0044700Y0069800D02*
X0044700Y0074600D01*
X0054700Y0074600D02*
X0054700Y0069800D01*
X0064700Y0069800D02*
X0064700Y0074600D01*
X0074700Y0074600D02*
X0074700Y0069800D01*
X0084700Y0069800D02*
X0084700Y0074600D01*
X0094700Y0074600D02*
X0094700Y0069800D01*
X0104700Y0069800D02*
X0104700Y0074600D01*
X0114700Y0074600D02*
X0114700Y0069800D01*
X0124700Y0069800D02*
X0124700Y0074600D01*
X0134700Y0074600D02*
X0134700Y0069800D01*
X0144700Y0069800D02*
X0144700Y0074600D01*
X0154700Y0074600D02*
X0154700Y0069800D01*
D13*
X0149700Y0092200D03*
X0159700Y0092200D03*
X0169700Y0092200D03*
X0169700Y0102200D03*
X0159700Y0102200D03*
X0149700Y0102200D03*
D14*
X0132200Y0094700D03*
X0122200Y0094700D03*
X0104700Y0094700D03*
X0094700Y0094700D03*
X0077200Y0094700D03*
X0067200Y0094700D03*
X0164700Y0084700D03*
X0174700Y0084700D03*
X0174700Y0054700D03*
X0164700Y0054700D03*
X0054700Y0032200D03*
X0024700Y0032200D03*
D15*
X0100200Y0024700D03*
X0119200Y0024700D03*
D16*
X0034700Y0022400D02*
X0034700Y0017000D01*
X0044700Y0017000D02*
X0044700Y0022400D01*
X0054700Y0022400D02*
X0054700Y0017000D01*
X0064700Y0017000D02*
X0064700Y0022400D01*
D17*
X0166200Y0044700D03*
D18*
X0173200Y0044700D03*
D19*
X0053000Y0083300D02*
X0047000Y0083300D01*
X0027400Y0083300D02*
X0021400Y0083300D01*
X0021400Y0101100D02*
X0027400Y0101100D01*
X0047000Y0101100D02*
X0053000Y0101100D01*
M02*
