G75*
%MOIN*%
%OFA0B0*%
%FSLAX25Y25*%
%IPPOS*%
%LPD*%
%AMOC8*
5,1,8,0,0,1.08239X$1,22.5*
%
%ADD10OC8,0.05600*%
%ADD11C,0.04800*%
%ADD12C,0.06400*%
%ADD13OC8,0.06600*%
%ADD14C,0.04800*%
%ADD15C,0.05400*%
%ADD16OC8,0.04600*%
%ADD17C,0.04600*%
%ADD18C,0.06000*%
%ADD19C,0.02400*%
%ADD20C,0.02000*%
D10*
X0072200Y0029700D03*
X0082200Y0029700D03*
X0137200Y0029700D03*
X0147200Y0029700D03*
D11*
X0154853Y0029495D02*
X0154853Y0024695D01*
X0164695Y0024695D02*
X0164695Y0029495D01*
X0174538Y0029495D02*
X0174538Y0024695D01*
X0154700Y0039800D02*
X0154700Y0044600D01*
X0144700Y0044600D02*
X0144700Y0039800D01*
X0134700Y0039800D02*
X0134700Y0044600D01*
X0124700Y0044600D02*
X0124700Y0039800D01*
X0114700Y0039800D02*
X0114700Y0044600D01*
X0104700Y0044600D02*
X0104700Y0039800D01*
X0094700Y0039800D02*
X0094700Y0044600D01*
X0084700Y0044600D02*
X0084700Y0039800D01*
X0074700Y0039800D02*
X0074700Y0044600D01*
X0064700Y0044600D02*
X0064700Y0039800D01*
X0054700Y0039800D02*
X0054700Y0044600D01*
X0044700Y0044600D02*
X0044700Y0039800D01*
X0034700Y0039800D02*
X0034700Y0044600D01*
X0024700Y0044600D02*
X0024700Y0039800D01*
X0024700Y0069800D02*
X0024700Y0074600D01*
X0034700Y0074600D02*
X0034700Y0069800D01*
X0044700Y0069800D02*
X0044700Y0074600D01*
X0054700Y0074600D02*
X0054700Y0069800D01*
X0064700Y0069800D02*
X0064700Y0074600D01*
X0074700Y0074600D02*
X0074700Y0069800D01*
X0084700Y0069800D02*
X0084700Y0074600D01*
X0094700Y0074600D02*
X0094700Y0069800D01*
X0104700Y0069800D02*
X0104700Y0074600D01*
X0114700Y0074600D02*
X0114700Y0069800D01*
X0124700Y0069800D02*
X0124700Y0074600D01*
X0134700Y0074600D02*
X0134700Y0069800D01*
X0144700Y0069800D02*
X0144700Y0074600D01*
X0154700Y0074600D02*
X0154700Y0069800D01*
D12*
X0149700Y0092200D03*
X0159700Y0092200D03*
X0169700Y0092200D03*
X0169700Y0102200D03*
X0159700Y0102200D03*
X0149700Y0102200D03*
D13*
X0132200Y0094700D03*
X0122200Y0094700D03*
X0104700Y0094700D03*
X0094700Y0094700D03*
X0077200Y0094700D03*
X0067200Y0094700D03*
X0164700Y0084700D03*
X0174700Y0084700D03*
X0174700Y0054700D03*
X0164700Y0054700D03*
X0054700Y0032200D03*
X0024700Y0032200D03*
D14*
X0100200Y0024700D03*
X0119200Y0024700D03*
D15*
X0064700Y0022400D02*
X0064700Y0017000D01*
X0054700Y0017000D02*
X0054700Y0022400D01*
X0044700Y0022400D02*
X0044700Y0017000D01*
X0034700Y0017000D02*
X0034700Y0022400D01*
D16*
X0166200Y0044700D03*
D17*
X0173200Y0044700D03*
D18*
X0053000Y0083300D02*
X0047000Y0083300D01*
X0027400Y0083300D02*
X0021400Y0083300D01*
X0021400Y0101100D02*
X0027400Y0101100D01*
X0047000Y0101100D02*
X0053000Y0101100D01*
D19*
X0014900Y0047475D02*
X0014900Y0014900D01*
X0030266Y0014900D01*
X0029800Y0016025D01*
X0029800Y0023375D01*
X0030546Y0025176D01*
X0031500Y0026130D01*
X0031500Y0036495D01*
X0030800Y0037194D01*
X0030100Y0038885D01*
X0030100Y0045515D01*
X0030800Y0047206D01*
X0032094Y0048500D01*
X0033785Y0049200D01*
X0035615Y0049200D01*
X0037306Y0048500D01*
X0038600Y0047206D01*
X0039300Y0045515D01*
X0039300Y0038885D01*
X0038600Y0037194D01*
X0037900Y0036495D01*
X0037900Y0026130D01*
X0038854Y0025176D01*
X0039600Y0023375D01*
X0039600Y0016025D01*
X0039134Y0014900D01*
X0040266Y0014900D01*
X0039800Y0016025D01*
X0039800Y0023375D01*
X0040546Y0025176D01*
X0041500Y0026130D01*
X0041500Y0036495D01*
X0040800Y0037194D01*
X0040100Y0038885D01*
X0040100Y0045515D01*
X0040800Y0047206D01*
X0042094Y0048500D01*
X0043785Y0049200D01*
X0045615Y0049200D01*
X0047306Y0048500D01*
X0048600Y0047206D01*
X0049300Y0045515D01*
X0049300Y0038885D01*
X0048600Y0037194D01*
X0047900Y0036495D01*
X0047900Y0026130D01*
X0048854Y0025176D01*
X0049600Y0023375D01*
X0049600Y0016025D01*
X0049134Y0014900D01*
X0050271Y0014900D01*
X0050159Y0015119D01*
X0049921Y0015853D01*
X0049800Y0016614D01*
X0049800Y0019700D01*
X0054700Y0019700D01*
X0059600Y0019700D01*
X0059600Y0022786D01*
X0059479Y0023547D01*
X0059241Y0024281D01*
X0058891Y0024968D01*
X0058437Y0025592D01*
X0057892Y0026137D01*
X0057268Y0026591D01*
X0057004Y0026726D01*
X0057576Y0027298D01*
X0060298Y0024577D01*
X0059800Y0023375D01*
X0059800Y0016025D01*
X0060266Y0014900D01*
X0059129Y0014900D01*
X0059241Y0015119D01*
X0059479Y0015853D01*
X0059600Y0016614D01*
X0059600Y0019700D01*
X0054700Y0019700D01*
X0054700Y0019700D01*
X0054700Y0019700D01*
X0049800Y0019700D01*
X0049800Y0022786D01*
X0049921Y0023547D01*
X0050159Y0024281D01*
X0050509Y0024968D01*
X0050962Y0025592D01*
X0051508Y0026137D01*
X0052132Y0026591D01*
X0052396Y0026726D01*
X0049200Y0029922D01*
X0049200Y0034478D01*
X0051358Y0036636D01*
X0050800Y0037194D01*
X0050100Y0038885D01*
X0050100Y0045515D01*
X0050800Y0047206D01*
X0052094Y0048500D01*
X0053785Y0049200D01*
X0055615Y0049200D01*
X0057306Y0048500D01*
X0058600Y0047206D01*
X0059300Y0045515D01*
X0059300Y0038885D01*
X0058600Y0037194D01*
X0058042Y0036636D01*
X0060200Y0034478D01*
X0060200Y0033725D01*
X0067298Y0026628D01*
X0067476Y0026554D01*
X0068854Y0025176D01*
X0069600Y0023375D01*
X0069600Y0016025D01*
X0069134Y0014900D01*
X0178201Y0014900D01*
X0178201Y0021853D01*
X0177143Y0020796D01*
X0175453Y0020095D01*
X0173623Y0020095D01*
X0171932Y0020796D01*
X0170638Y0022090D01*
X0169938Y0023780D01*
X0169938Y0030410D01*
X0170638Y0032101D01*
X0171500Y0032963D01*
X0171500Y0040533D01*
X0170651Y0040885D01*
X0169700Y0041836D01*
X0168064Y0040200D01*
X0166200Y0040200D01*
X0166200Y0044700D01*
X0166200Y0044700D01*
X0166200Y0049200D01*
X0168064Y0049200D01*
X0169700Y0047564D01*
X0170250Y0048114D01*
X0170250Y0051372D01*
X0169700Y0051922D01*
X0166978Y0049200D01*
X0164700Y0049200D01*
X0164700Y0054700D01*
X0164700Y0054700D01*
X0164700Y0060200D01*
X0166978Y0060200D01*
X0169700Y0057478D01*
X0172422Y0060200D01*
X0176978Y0060200D01*
X0178201Y0058977D01*
X0178201Y0080423D01*
X0176978Y0079200D01*
X0176650Y0079200D01*
X0176650Y0076563D01*
X0176163Y0075387D01*
X0159913Y0059137D01*
X0159013Y0058237D01*
X0157837Y0057750D01*
X0101025Y0057750D01*
X0089151Y0045875D01*
X0089300Y0045515D01*
X0089300Y0038885D01*
X0088600Y0037194D01*
X0087306Y0035900D01*
X0085615Y0035200D01*
X0083785Y0035200D01*
X0082094Y0035900D01*
X0080800Y0037194D01*
X0080100Y0038885D01*
X0080100Y0045515D01*
X0080800Y0047206D01*
X0082094Y0048500D01*
X0083170Y0048945D01*
X0097612Y0063388D01*
X0097612Y0063388D01*
X0098512Y0064288D01*
X0098512Y0064288D01*
X0101110Y0066885D01*
X0100800Y0067194D01*
X0100100Y0068885D01*
X0100100Y0075515D01*
X0100800Y0077206D01*
X0102094Y0078500D01*
X0103785Y0079200D01*
X0105615Y0079200D01*
X0107306Y0078500D01*
X0108600Y0077206D01*
X0109300Y0075515D01*
X0109300Y0068885D01*
X0109150Y0068523D01*
X0109150Y0066563D01*
X0108663Y0065387D01*
X0107763Y0064487D01*
X0107425Y0064150D01*
X0155875Y0064150D01*
X0170250Y0078525D01*
X0170250Y0081372D01*
X0169700Y0081922D01*
X0166978Y0079200D01*
X0162422Y0079200D01*
X0159200Y0082422D01*
X0159200Y0084675D01*
X0155263Y0080737D01*
X0154087Y0080250D01*
X0143525Y0080250D01*
X0139151Y0075875D01*
X0139300Y0075515D01*
X0139300Y0068885D01*
X0138600Y0067194D01*
X0137306Y0065900D01*
X0135615Y0065200D01*
X0133785Y0065200D01*
X0132094Y0065900D01*
X0130800Y0067194D01*
X0130100Y0068885D01*
X0130100Y0075515D01*
X0130800Y0077206D01*
X0132094Y0078500D01*
X0133170Y0078945D01*
X0139487Y0085263D01*
X0140387Y0086163D01*
X0141563Y0086650D01*
X0152125Y0086650D01*
X0154974Y0089499D01*
X0154708Y0090140D01*
X0154704Y0090127D01*
X0154318Y0089370D01*
X0153819Y0088682D01*
X0153218Y0088081D01*
X0152530Y0087582D01*
X0151773Y0087196D01*
X0150965Y0086933D01*
X0150125Y0086800D01*
X0149700Y0086800D01*
X0149700Y0092200D01*
X0149700Y0092200D01*
X0149700Y0086800D01*
X0149275Y0086800D01*
X0148435Y0086933D01*
X0147627Y0087196D01*
X0146870Y0087582D01*
X0146182Y0088081D01*
X0145581Y0088682D01*
X0145082Y0089370D01*
X0144696Y0090127D01*
X0144433Y0090935D01*
X0144403Y0091127D01*
X0129151Y0075875D01*
X0129300Y0075515D01*
X0129300Y0068885D01*
X0128600Y0067194D01*
X0127306Y0065900D01*
X0125615Y0065200D01*
X0123785Y0065200D01*
X0122094Y0065900D01*
X0120800Y0067194D01*
X0120100Y0068885D01*
X0120100Y0075515D01*
X0120800Y0077206D01*
X0122094Y0078500D01*
X0123170Y0078945D01*
X0133425Y0089200D01*
X0129922Y0089200D01*
X0127200Y0091922D01*
X0124478Y0089200D01*
X0119922Y0089200D01*
X0117622Y0091500D01*
X0109278Y0091500D01*
X0106978Y0089200D01*
X0102422Y0089200D01*
X0099700Y0091922D01*
X0096978Y0089200D01*
X0092422Y0089200D01*
X0089200Y0092422D01*
X0089200Y0096500D01*
X0082700Y0096500D01*
X0082700Y0092422D01*
X0079478Y0089200D01*
X0074922Y0089200D01*
X0072900Y0091222D01*
X0072900Y0078833D01*
X0073785Y0079200D01*
X0075615Y0079200D01*
X0077306Y0078500D01*
X0078600Y0077206D01*
X0079300Y0075515D01*
X0079300Y0068885D01*
X0078600Y0067194D01*
X0077306Y0065900D01*
X0075615Y0065200D01*
X0073785Y0065200D01*
X0072548Y0065713D01*
X0072413Y0065387D01*
X0071513Y0064487D01*
X0067900Y0060875D01*
X0067900Y0047905D01*
X0068600Y0047206D01*
X0069300Y0045515D01*
X0069300Y0038885D01*
X0068600Y0037194D01*
X0067306Y0035900D01*
X0065615Y0035200D01*
X0063785Y0035200D01*
X0062094Y0035900D01*
X0060800Y0037194D01*
X0060100Y0038885D01*
X0060100Y0045515D01*
X0060800Y0047206D01*
X0061500Y0047905D01*
X0061500Y0062837D01*
X0061987Y0064013D01*
X0063353Y0065379D01*
X0062094Y0065900D01*
X0060800Y0067194D01*
X0060100Y0068885D01*
X0060100Y0075515D01*
X0060800Y0077206D01*
X0062094Y0078500D01*
X0063785Y0079200D01*
X0065615Y0079200D01*
X0066500Y0078833D01*
X0066500Y0089200D01*
X0064922Y0089200D01*
X0061824Y0092298D01*
X0056590Y0087064D01*
X0057408Y0086246D01*
X0058200Y0084334D01*
X0058200Y0082266D01*
X0057408Y0080354D01*
X0056067Y0079013D01*
X0057306Y0078500D01*
X0058600Y0077206D01*
X0059300Y0075515D01*
X0059300Y0068885D01*
X0058600Y0067194D01*
X0057306Y0065900D01*
X0055615Y0065200D01*
X0053785Y0065200D01*
X0052094Y0065900D01*
X0050800Y0067194D01*
X0050100Y0068885D01*
X0050100Y0075515D01*
X0050800Y0077206D01*
X0051695Y0078100D01*
X0047705Y0078100D01*
X0048600Y0077206D01*
X0049300Y0075515D01*
X0049300Y0068885D01*
X0048600Y0067194D01*
X0047306Y0065900D01*
X0045615Y0065200D01*
X0043785Y0065200D01*
X0042094Y0065900D01*
X0040800Y0067194D01*
X0040100Y0068885D01*
X0040100Y0075515D01*
X0040800Y0077206D01*
X0042094Y0078500D01*
X0043757Y0079189D01*
X0042592Y0080354D01*
X0041800Y0082266D01*
X0041800Y0084334D01*
X0042592Y0086246D01*
X0044054Y0087708D01*
X0045966Y0088500D01*
X0048975Y0088500D01*
X0049137Y0088663D01*
X0061987Y0101513D01*
X0061987Y0101513D01*
X0062887Y0102413D01*
X0064063Y0102900D01*
X0142125Y0102900D01*
X0143237Y0104013D01*
X0144137Y0104913D01*
X0145228Y0105364D01*
X0146641Y0106778D01*
X0147082Y0106961D01*
X0014900Y0106961D01*
X0014900Y0080675D01*
X0016285Y0082060D01*
X0016200Y0082266D01*
X0016200Y0084334D01*
X0016992Y0086246D01*
X0018454Y0087708D01*
X0020366Y0088500D01*
X0028434Y0088500D01*
X0030346Y0087708D01*
X0031808Y0086246D01*
X0032600Y0084334D01*
X0032600Y0082266D01*
X0031808Y0080354D01*
X0030346Y0078892D01*
X0028434Y0078100D01*
X0027705Y0078100D01*
X0028600Y0077206D01*
X0029300Y0075515D01*
X0029300Y0068885D01*
X0028600Y0067194D01*
X0027306Y0065900D01*
X0025615Y0065200D01*
X0023785Y0065200D01*
X0022094Y0065900D01*
X0020800Y0067194D01*
X0020100Y0068885D01*
X0020100Y0075515D01*
X0020800Y0077206D01*
X0021695Y0078100D01*
X0021375Y0078100D01*
X0017900Y0074625D01*
X0017900Y0053525D01*
X0022682Y0048743D01*
X0023785Y0049200D01*
X0025615Y0049200D01*
X0027306Y0048500D01*
X0028600Y0047206D01*
X0029300Y0045515D01*
X0029300Y0038885D01*
X0028600Y0037194D01*
X0028042Y0036636D01*
X0030200Y0034478D01*
X0030200Y0029922D01*
X0026978Y0026700D01*
X0022422Y0026700D01*
X0019200Y0029922D01*
X0019200Y0034478D01*
X0021358Y0036636D01*
X0020800Y0037194D01*
X0020100Y0038885D01*
X0020100Y0042275D01*
X0014900Y0047475D01*
X0014900Y0045779D02*
X0016595Y0045779D01*
X0014900Y0043381D02*
X0018994Y0043381D01*
X0020100Y0040982D02*
X0014900Y0040982D01*
X0014900Y0038584D02*
X0020225Y0038584D01*
X0020907Y0036185D02*
X0014900Y0036185D01*
X0014900Y0033787D02*
X0019200Y0033787D01*
X0019200Y0031388D02*
X0014900Y0031388D01*
X0014900Y0028990D02*
X0020132Y0028990D01*
X0014900Y0026591D02*
X0031500Y0026591D01*
X0031500Y0028990D02*
X0029268Y0028990D01*
X0030200Y0031388D02*
X0031500Y0031388D01*
X0031500Y0033787D02*
X0030200Y0033787D01*
X0031500Y0036185D02*
X0028493Y0036185D01*
X0029175Y0038584D02*
X0030225Y0038584D01*
X0030100Y0040982D02*
X0029300Y0040982D01*
X0029300Y0043381D02*
X0030100Y0043381D01*
X0030209Y0045779D02*
X0029191Y0045779D01*
X0027628Y0048178D02*
X0031772Y0048178D01*
X0037628Y0048178D02*
X0041772Y0048178D01*
X0040209Y0045779D02*
X0039191Y0045779D01*
X0039300Y0043381D02*
X0040100Y0043381D01*
X0040100Y0040982D02*
X0039300Y0040982D01*
X0039175Y0038584D02*
X0040225Y0038584D01*
X0041500Y0036185D02*
X0037900Y0036185D01*
X0037900Y0033787D02*
X0041500Y0033787D01*
X0041500Y0031388D02*
X0037900Y0031388D01*
X0037900Y0028990D02*
X0041500Y0028990D01*
X0041500Y0026591D02*
X0037900Y0026591D01*
X0039261Y0024193D02*
X0040139Y0024193D01*
X0039800Y0021794D02*
X0039600Y0021794D01*
X0039600Y0019396D02*
X0039800Y0019396D01*
X0039800Y0016997D02*
X0039600Y0016997D01*
X0029800Y0016997D02*
X0014900Y0016997D01*
X0014900Y0019396D02*
X0029800Y0019396D01*
X0029800Y0021794D02*
X0014900Y0021794D01*
X0014900Y0024193D02*
X0030139Y0024193D01*
X0047900Y0026591D02*
X0052132Y0026591D01*
X0050132Y0028990D02*
X0047900Y0028990D01*
X0047900Y0031388D02*
X0049200Y0031388D01*
X0049200Y0033787D02*
X0047900Y0033787D01*
X0047900Y0036185D02*
X0050907Y0036185D01*
X0050225Y0038584D02*
X0049175Y0038584D01*
X0049300Y0040982D02*
X0050100Y0040982D01*
X0050100Y0043381D02*
X0049300Y0043381D01*
X0049191Y0045779D02*
X0050209Y0045779D01*
X0051772Y0048178D02*
X0047628Y0048178D01*
X0057628Y0048178D02*
X0061500Y0048178D01*
X0061500Y0050576D02*
X0020849Y0050576D01*
X0018451Y0052975D02*
X0061500Y0052975D01*
X0061500Y0055373D02*
X0017900Y0055373D01*
X0017900Y0057772D02*
X0061500Y0057772D01*
X0061500Y0060170D02*
X0017900Y0060170D01*
X0017900Y0062569D02*
X0061500Y0062569D01*
X0062942Y0064967D02*
X0017900Y0064967D01*
X0017900Y0067366D02*
X0020729Y0067366D01*
X0020100Y0069764D02*
X0017900Y0069764D01*
X0017900Y0072163D02*
X0020100Y0072163D01*
X0020100Y0074561D02*
X0017900Y0074561D01*
X0020235Y0076960D02*
X0020698Y0076960D01*
X0015981Y0081757D02*
X0014900Y0081757D01*
X0014900Y0084155D02*
X0016200Y0084155D01*
X0017300Y0086554D02*
X0014900Y0086554D01*
X0014900Y0088952D02*
X0049427Y0088952D01*
X0051825Y0091351D02*
X0014900Y0091351D01*
X0014900Y0093749D02*
X0054224Y0093749D01*
X0054218Y0096028D02*
X0054996Y0096281D01*
X0055725Y0096653D01*
X0056388Y0097134D01*
X0056966Y0097712D01*
X0057447Y0098375D01*
X0057819Y0099104D01*
X0058072Y0099882D01*
X0058200Y0100691D01*
X0058200Y0101100D01*
X0058200Y0101509D01*
X0058072Y0102318D01*
X0057819Y0103096D01*
X0057447Y0103825D01*
X0056966Y0104488D01*
X0056388Y0105066D01*
X0055725Y0105547D01*
X0054996Y0105919D01*
X0054218Y0106172D01*
X0053409Y0106300D01*
X0050000Y0106300D01*
X0050000Y0101100D01*
X0050000Y0101100D01*
X0058200Y0101100D01*
X0050000Y0101100D01*
X0050000Y0101100D01*
X0050000Y0106300D01*
X0046591Y0106300D01*
X0045782Y0106172D01*
X0045004Y0105919D01*
X0044275Y0105547D01*
X0043612Y0105066D01*
X0043034Y0104488D01*
X0042553Y0103825D01*
X0042181Y0103096D01*
X0041928Y0102318D01*
X0041800Y0101509D01*
X0041800Y0101100D01*
X0050000Y0101100D01*
X0050000Y0095900D01*
X0053409Y0095900D01*
X0054218Y0096028D01*
X0054587Y0096148D02*
X0056622Y0096148D01*
X0057535Y0098546D02*
X0059021Y0098546D01*
X0058200Y0100945D02*
X0061419Y0100945D01*
X0057693Y0103343D02*
X0142568Y0103343D01*
X0145605Y0105742D02*
X0055344Y0105742D01*
X0050000Y0105742D02*
X0050000Y0105742D01*
X0050000Y0103343D02*
X0050000Y0103343D01*
X0050000Y0101100D02*
X0050000Y0101100D01*
X0050000Y0101100D01*
X0050000Y0095900D01*
X0046591Y0095900D01*
X0045782Y0096028D01*
X0045004Y0096281D01*
X0044275Y0096653D01*
X0043612Y0097134D01*
X0043034Y0097712D01*
X0042553Y0098375D01*
X0042181Y0099104D01*
X0041928Y0099882D01*
X0041800Y0100691D01*
X0041800Y0101100D01*
X0050000Y0101100D01*
X0050000Y0100945D02*
X0050000Y0100945D01*
X0050000Y0098546D02*
X0050000Y0098546D01*
X0050000Y0096148D02*
X0050000Y0096148D01*
X0045413Y0096148D02*
X0028987Y0096148D01*
X0028618Y0096028D02*
X0029396Y0096281D01*
X0030125Y0096653D01*
X0030788Y0097134D01*
X0031366Y0097712D01*
X0031847Y0098375D01*
X0032219Y0099104D01*
X0032472Y0099882D01*
X0032600Y0100691D01*
X0032600Y0101100D01*
X0032600Y0101509D01*
X0032472Y0102318D01*
X0032219Y0103096D01*
X0031847Y0103825D01*
X0031366Y0104488D01*
X0030788Y0105066D01*
X0030125Y0105547D01*
X0029396Y0105919D01*
X0028618Y0106172D01*
X0027809Y0106300D01*
X0024400Y0106300D01*
X0024400Y0101100D01*
X0024400Y0101100D01*
X0032600Y0101100D01*
X0024400Y0101100D01*
X0024400Y0101100D01*
X0024400Y0106300D01*
X0020991Y0106300D01*
X0020182Y0106172D01*
X0019404Y0105919D01*
X0018675Y0105547D01*
X0018012Y0105066D01*
X0017434Y0104488D01*
X0016953Y0103825D01*
X0016581Y0103096D01*
X0016328Y0102318D01*
X0016200Y0101509D01*
X0016200Y0101100D01*
X0024400Y0101100D01*
X0024400Y0095900D01*
X0027809Y0095900D01*
X0028618Y0096028D01*
X0031935Y0098546D02*
X0042465Y0098546D01*
X0041800Y0100945D02*
X0032600Y0100945D01*
X0032093Y0103343D02*
X0042307Y0103343D01*
X0044656Y0105742D02*
X0029744Y0105742D01*
X0024400Y0105742D02*
X0024400Y0105742D01*
X0024400Y0103343D02*
X0024400Y0103343D01*
X0024400Y0101100D02*
X0024400Y0101100D01*
X0024400Y0101100D01*
X0024400Y0095900D01*
X0020991Y0095900D01*
X0020182Y0096028D01*
X0019404Y0096281D01*
X0018675Y0096653D01*
X0018012Y0097134D01*
X0017434Y0097712D01*
X0016953Y0098375D01*
X0016581Y0099104D01*
X0016328Y0099882D01*
X0016200Y0100691D01*
X0016200Y0101100D01*
X0024400Y0101100D01*
X0024400Y0100945D02*
X0024400Y0100945D01*
X0024400Y0098546D02*
X0024400Y0098546D01*
X0024400Y0096148D02*
X0024400Y0096148D01*
X0019813Y0096148D02*
X0014900Y0096148D01*
X0014900Y0098546D02*
X0016865Y0098546D01*
X0016200Y0100945D02*
X0014900Y0100945D01*
X0014900Y0103343D02*
X0016707Y0103343D01*
X0014900Y0105742D02*
X0019056Y0105742D01*
X0031500Y0086554D02*
X0042900Y0086554D01*
X0041800Y0084155D02*
X0032600Y0084155D01*
X0032389Y0081757D02*
X0042011Y0081757D01*
X0043588Y0079358D02*
X0030812Y0079358D01*
X0032094Y0078500D02*
X0030800Y0077206D01*
X0030100Y0075515D01*
X0030100Y0068885D01*
X0030800Y0067194D01*
X0032094Y0065900D01*
X0033785Y0065200D01*
X0035615Y0065200D01*
X0037306Y0065900D01*
X0038600Y0067194D01*
X0039300Y0068885D01*
X0039300Y0075515D01*
X0038600Y0077206D01*
X0037306Y0078500D01*
X0035615Y0079200D01*
X0033785Y0079200D01*
X0032094Y0078500D01*
X0030698Y0076960D02*
X0028702Y0076960D01*
X0029300Y0074561D02*
X0030100Y0074561D01*
X0030100Y0072163D02*
X0029300Y0072163D01*
X0029300Y0069764D02*
X0030100Y0069764D01*
X0030729Y0067366D02*
X0028671Y0067366D01*
X0038671Y0067366D02*
X0040729Y0067366D01*
X0040100Y0069764D02*
X0039300Y0069764D01*
X0039300Y0072163D02*
X0040100Y0072163D01*
X0040100Y0074561D02*
X0039300Y0074561D01*
X0038702Y0076960D02*
X0040698Y0076960D01*
X0048702Y0076960D02*
X0050698Y0076960D01*
X0050100Y0074561D02*
X0049300Y0074561D01*
X0049300Y0072163D02*
X0050100Y0072163D01*
X0050100Y0069764D02*
X0049300Y0069764D01*
X0048671Y0067366D02*
X0050729Y0067366D01*
X0058671Y0067366D02*
X0060729Y0067366D01*
X0060100Y0069764D02*
X0059300Y0069764D01*
X0059300Y0072163D02*
X0060100Y0072163D01*
X0060100Y0074561D02*
X0059300Y0074561D01*
X0058702Y0076960D02*
X0060698Y0076960D01*
X0056412Y0079358D02*
X0066500Y0079358D01*
X0066500Y0081757D02*
X0057989Y0081757D01*
X0058200Y0084155D02*
X0066500Y0084155D01*
X0066500Y0086554D02*
X0057100Y0086554D01*
X0058478Y0088952D02*
X0066500Y0088952D01*
X0062771Y0091351D02*
X0060876Y0091351D01*
X0072900Y0088952D02*
X0133177Y0088952D01*
X0130778Y0086554D02*
X0072900Y0086554D01*
X0072900Y0084155D02*
X0128380Y0084155D01*
X0125981Y0081757D02*
X0072900Y0081757D01*
X0072900Y0079358D02*
X0123583Y0079358D01*
X0120698Y0076960D02*
X0118702Y0076960D01*
X0118600Y0077206D02*
X0117306Y0078500D01*
X0115615Y0079200D01*
X0113785Y0079200D01*
X0112094Y0078500D01*
X0110800Y0077206D01*
X0110100Y0075515D01*
X0110100Y0068885D01*
X0110800Y0067194D01*
X0112094Y0065900D01*
X0113785Y0065200D01*
X0115615Y0065200D01*
X0117306Y0065900D01*
X0118600Y0067194D01*
X0119300Y0068885D01*
X0119300Y0075515D01*
X0118600Y0077206D01*
X0119300Y0074561D02*
X0120100Y0074561D01*
X0120100Y0072163D02*
X0119300Y0072163D01*
X0119300Y0069764D02*
X0120100Y0069764D01*
X0120729Y0067366D02*
X0118671Y0067366D01*
X0110729Y0067366D02*
X0109150Y0067366D01*
X0109300Y0069764D02*
X0110100Y0069764D01*
X0110100Y0072163D02*
X0109300Y0072163D01*
X0109300Y0074561D02*
X0110100Y0074561D01*
X0110698Y0076960D02*
X0108702Y0076960D01*
X0100698Y0076960D02*
X0098702Y0076960D01*
X0098600Y0077206D02*
X0097306Y0078500D01*
X0095615Y0079200D01*
X0093785Y0079200D01*
X0092094Y0078500D01*
X0090800Y0077206D01*
X0090100Y0075515D01*
X0090100Y0068885D01*
X0090800Y0067194D01*
X0092094Y0065900D01*
X0093785Y0065200D01*
X0095615Y0065200D01*
X0097306Y0065900D01*
X0098600Y0067194D01*
X0099300Y0068885D01*
X0099300Y0075515D01*
X0098600Y0077206D01*
X0099300Y0074561D02*
X0100100Y0074561D01*
X0100100Y0072163D02*
X0099300Y0072163D01*
X0099300Y0069764D02*
X0100100Y0069764D01*
X0100729Y0067366D02*
X0098671Y0067366D01*
X0099192Y0064967D02*
X0071993Y0064967D01*
X0069594Y0062569D02*
X0096793Y0062569D01*
X0094395Y0060170D02*
X0067900Y0060170D01*
X0067900Y0057772D02*
X0091996Y0057772D01*
X0089598Y0055373D02*
X0067900Y0055373D01*
X0067900Y0052975D02*
X0087199Y0052975D01*
X0084801Y0050576D02*
X0067900Y0050576D01*
X0067900Y0048178D02*
X0071772Y0048178D01*
X0072094Y0048500D02*
X0070800Y0047206D01*
X0070100Y0045515D01*
X0070100Y0038885D01*
X0070800Y0037194D01*
X0072094Y0035900D01*
X0073785Y0035200D01*
X0075615Y0035200D01*
X0077306Y0035900D01*
X0078600Y0037194D01*
X0079300Y0038885D01*
X0079300Y0045515D01*
X0078600Y0047206D01*
X0077306Y0048500D01*
X0075615Y0049200D01*
X0073785Y0049200D01*
X0072094Y0048500D01*
X0070209Y0045779D02*
X0069191Y0045779D01*
X0069300Y0043381D02*
X0070100Y0043381D01*
X0070100Y0040982D02*
X0069300Y0040982D01*
X0069175Y0038584D02*
X0070225Y0038584D01*
X0071809Y0036185D02*
X0067590Y0036185D01*
X0069216Y0033787D02*
X0060200Y0033787D01*
X0061809Y0036185D02*
X0058493Y0036185D01*
X0059175Y0038584D02*
X0060225Y0038584D01*
X0060100Y0040982D02*
X0059300Y0040982D01*
X0059300Y0043381D02*
X0060100Y0043381D01*
X0060209Y0045779D02*
X0059191Y0045779D01*
X0070129Y0034700D02*
X0067200Y0031771D01*
X0067200Y0029700D01*
X0072200Y0029700D01*
X0077200Y0029700D01*
X0077200Y0031771D01*
X0077200Y0027629D01*
X0080129Y0024700D01*
X0083925Y0024700D01*
X0086637Y0021987D01*
X0087813Y0021500D01*
X0096895Y0021500D01*
X0097594Y0020800D01*
X0099285Y0020100D01*
X0101115Y0020100D01*
X0102806Y0020800D01*
X0104100Y0022094D01*
X0104800Y0023785D01*
X0104800Y0024775D01*
X0107413Y0027387D01*
X0107900Y0028563D01*
X0107900Y0036495D01*
X0108600Y0037194D01*
X0109300Y0038885D01*
X0109300Y0045515D01*
X0108600Y0047206D01*
X0107306Y0048500D01*
X0105615Y0049200D01*
X0103785Y0049200D01*
X0102094Y0048500D01*
X0100800Y0047206D01*
X0100100Y0045515D01*
X0100100Y0038885D01*
X0100800Y0037194D01*
X0101500Y0036495D01*
X0101500Y0030525D01*
X0100275Y0029300D01*
X0099285Y0029300D01*
X0097594Y0028600D01*
X0096895Y0027900D01*
X0089775Y0027900D01*
X0087200Y0030475D01*
X0087200Y0031771D01*
X0084271Y0034700D01*
X0080129Y0034700D01*
X0077200Y0031771D01*
X0074271Y0034700D01*
X0072200Y0034700D01*
X0072200Y0029700D01*
X0072200Y0029700D01*
X0072200Y0029700D01*
X0077200Y0029700D01*
X0077200Y0027629D01*
X0074271Y0024700D01*
X0072200Y0024700D01*
X0072200Y0029700D01*
X0072200Y0029700D01*
X0072200Y0029700D01*
X0072200Y0034700D01*
X0070129Y0034700D01*
X0072200Y0033787D02*
X0072200Y0033787D01*
X0075184Y0033787D02*
X0079216Y0033787D01*
X0077590Y0036185D02*
X0081809Y0036185D01*
X0080225Y0038584D02*
X0079175Y0038584D01*
X0079300Y0040982D02*
X0080100Y0040982D01*
X0080100Y0043381D02*
X0079300Y0043381D01*
X0079191Y0045779D02*
X0080209Y0045779D01*
X0081772Y0048178D02*
X0077628Y0048178D01*
X0089191Y0045779D02*
X0090246Y0045779D01*
X0090213Y0045677D02*
X0090100Y0044962D01*
X0090100Y0042200D01*
X0094700Y0042200D01*
X0099300Y0042200D01*
X0099300Y0044962D01*
X0099187Y0045677D01*
X0098963Y0046366D01*
X0098634Y0047011D01*
X0098209Y0047597D01*
X0097697Y0048109D01*
X0097111Y0048534D01*
X0096466Y0048863D01*
X0095777Y0049087D01*
X0095062Y0049200D01*
X0094700Y0049200D01*
X0094700Y0042200D01*
X0094700Y0042200D01*
X0094700Y0042200D01*
X0099300Y0042200D01*
X0099300Y0039438D01*
X0099187Y0038723D01*
X0098963Y0038034D01*
X0098634Y0037389D01*
X0098209Y0036803D01*
X0097697Y0036291D01*
X0097111Y0035866D01*
X0096466Y0035537D01*
X0095777Y0035313D01*
X0095062Y0035200D01*
X0094700Y0035200D01*
X0094700Y0042200D01*
X0094700Y0042200D01*
X0094700Y0042200D01*
X0094700Y0049200D01*
X0094338Y0049200D01*
X0093623Y0049087D01*
X0092934Y0048863D01*
X0092289Y0048534D01*
X0091703Y0048109D01*
X0091191Y0047597D01*
X0090766Y0047011D01*
X0090437Y0046366D01*
X0090213Y0045677D01*
X0090100Y0043381D02*
X0089300Y0043381D01*
X0090100Y0042200D02*
X0090100Y0039438D01*
X0090213Y0038723D01*
X0090437Y0038034D01*
X0090766Y0037389D01*
X0091191Y0036803D01*
X0091703Y0036291D01*
X0092289Y0035866D01*
X0092934Y0035537D01*
X0093623Y0035313D01*
X0094338Y0035200D01*
X0094700Y0035200D01*
X0094700Y0042200D01*
X0090100Y0042200D01*
X0090100Y0040982D02*
X0089300Y0040982D01*
X0089175Y0038584D02*
X0090258Y0038584D01*
X0091849Y0036185D02*
X0087590Y0036185D01*
X0085184Y0033787D02*
X0101500Y0033787D01*
X0101500Y0036185D02*
X0097551Y0036185D01*
X0094700Y0036185D02*
X0094700Y0036185D01*
X0094700Y0038584D02*
X0094700Y0038584D01*
X0094700Y0040982D02*
X0094700Y0040982D01*
X0094700Y0043381D02*
X0094700Y0043381D01*
X0094700Y0045779D02*
X0094700Y0045779D01*
X0094700Y0048178D02*
X0094700Y0048178D01*
X0091798Y0048178D02*
X0091453Y0048178D01*
X0093852Y0050576D02*
X0161046Y0050576D01*
X0162422Y0049200D02*
X0159200Y0052422D01*
X0159200Y0054700D01*
X0164700Y0054700D01*
X0164700Y0054700D01*
X0164700Y0054700D01*
X0164700Y0060200D01*
X0162422Y0060200D01*
X0159200Y0056978D01*
X0159200Y0054700D01*
X0164700Y0054700D01*
X0164700Y0049200D01*
X0162422Y0049200D01*
X0163314Y0048178D02*
X0157628Y0048178D01*
X0157306Y0048500D02*
X0155615Y0049200D01*
X0153785Y0049200D01*
X0152094Y0048500D01*
X0150800Y0047206D01*
X0150100Y0045515D01*
X0150100Y0038885D01*
X0150800Y0037194D01*
X0152094Y0035900D01*
X0152750Y0035629D01*
X0152750Y0033603D01*
X0152247Y0033395D01*
X0151412Y0032559D01*
X0149271Y0034700D01*
X0147200Y0034700D01*
X0147200Y0029700D01*
X0147200Y0029700D01*
X0147200Y0024700D01*
X0149271Y0024700D01*
X0150253Y0025682D01*
X0150253Y0023780D01*
X0150953Y0022090D01*
X0152247Y0020796D01*
X0153938Y0020095D01*
X0155768Y0020095D01*
X0157458Y0020796D01*
X0158752Y0022090D01*
X0159453Y0023780D01*
X0159453Y0030410D01*
X0159150Y0031141D01*
X0159150Y0038523D01*
X0159300Y0038885D01*
X0159300Y0045515D01*
X0158600Y0047206D01*
X0157306Y0048500D01*
X0159191Y0045779D02*
X0161700Y0045779D01*
X0161700Y0046564D02*
X0161700Y0044700D01*
X0166200Y0044700D01*
X0166200Y0044700D01*
X0166200Y0044700D01*
X0166200Y0049200D01*
X0164336Y0049200D01*
X0161700Y0046564D01*
X0161700Y0044700D02*
X0161700Y0042836D01*
X0164336Y0040200D01*
X0166200Y0040200D01*
X0166200Y0044700D01*
X0161700Y0044700D01*
X0161700Y0043381D02*
X0159300Y0043381D01*
X0159300Y0040982D02*
X0163554Y0040982D01*
X0166200Y0040982D02*
X0166200Y0040982D01*
X0168846Y0040982D02*
X0170554Y0040982D01*
X0171500Y0038584D02*
X0159175Y0038584D01*
X0159150Y0036185D02*
X0171500Y0036185D01*
X0171500Y0033787D02*
X0166374Y0033787D01*
X0166461Y0033758D02*
X0165772Y0033982D01*
X0165057Y0034095D01*
X0164695Y0034095D01*
X0164333Y0034095D01*
X0163618Y0033982D01*
X0162929Y0033758D01*
X0162284Y0033430D01*
X0161699Y0033004D01*
X0161187Y0032492D01*
X0160761Y0031906D01*
X0160432Y0031261D01*
X0160209Y0030572D01*
X0160095Y0029857D01*
X0160095Y0027095D01*
X0160095Y0024333D01*
X0160209Y0023618D01*
X0160432Y0022929D01*
X0160761Y0022284D01*
X0161187Y0021699D01*
X0161699Y0021187D01*
X0162284Y0020761D01*
X0162929Y0020432D01*
X0163618Y0020209D01*
X0164333Y0020095D01*
X0164695Y0020095D01*
X0164695Y0027095D01*
X0164695Y0027095D01*
X0160095Y0027095D01*
X0164695Y0027095D01*
X0164695Y0027095D01*
X0164695Y0020095D01*
X0165057Y0020095D01*
X0165772Y0020209D01*
X0166461Y0020432D01*
X0167106Y0020761D01*
X0167692Y0021187D01*
X0168204Y0021699D01*
X0168630Y0022284D01*
X0168958Y0022929D01*
X0169182Y0023618D01*
X0169295Y0024333D01*
X0169295Y0027095D01*
X0164695Y0027095D01*
X0164695Y0027095D01*
X0164695Y0034095D01*
X0164695Y0027095D01*
X0164695Y0027095D01*
X0169295Y0027095D01*
X0169295Y0029857D01*
X0169182Y0030572D01*
X0168958Y0031261D01*
X0168630Y0031906D01*
X0168204Y0032492D01*
X0167692Y0033004D01*
X0167106Y0033430D01*
X0166461Y0033758D01*
X0164695Y0033787D02*
X0164695Y0033787D01*
X0163017Y0033787D02*
X0159150Y0033787D01*
X0159150Y0031388D02*
X0160497Y0031388D01*
X0160095Y0028990D02*
X0159453Y0028990D01*
X0159453Y0026591D02*
X0160095Y0026591D01*
X0160118Y0024193D02*
X0159453Y0024193D01*
X0158457Y0021794D02*
X0161117Y0021794D01*
X0164695Y0021794D02*
X0164695Y0021794D01*
X0164695Y0024193D02*
X0164695Y0024193D01*
X0164695Y0026591D02*
X0164695Y0026591D01*
X0164695Y0028990D02*
X0164695Y0028990D01*
X0164695Y0031388D02*
X0164695Y0031388D01*
X0168894Y0031388D02*
X0170343Y0031388D01*
X0169938Y0028990D02*
X0169295Y0028990D01*
X0169295Y0026591D02*
X0169938Y0026591D01*
X0169938Y0024193D02*
X0169273Y0024193D01*
X0168273Y0021794D02*
X0170934Y0021794D01*
X0178142Y0021794D02*
X0178201Y0021794D01*
X0178201Y0019396D02*
X0069600Y0019396D01*
X0069600Y0021794D02*
X0087104Y0021794D01*
X0084432Y0024193D02*
X0069261Y0024193D01*
X0070129Y0024700D02*
X0072200Y0024700D01*
X0072200Y0029700D01*
X0067200Y0029700D01*
X0067200Y0027629D01*
X0070129Y0024700D01*
X0068238Y0026591D02*
X0067386Y0026591D01*
X0067200Y0028990D02*
X0064936Y0028990D01*
X0067200Y0031388D02*
X0062537Y0031388D01*
X0058283Y0026591D02*
X0057268Y0026591D01*
X0059270Y0024193D02*
X0060139Y0024193D01*
X0059800Y0021794D02*
X0059600Y0021794D01*
X0059600Y0019396D02*
X0059800Y0019396D01*
X0059800Y0016997D02*
X0059600Y0016997D01*
X0049800Y0016997D02*
X0049600Y0016997D01*
X0049600Y0019396D02*
X0049800Y0019396D01*
X0049800Y0021794D02*
X0049600Y0021794D01*
X0049261Y0024193D02*
X0050130Y0024193D01*
X0069600Y0016997D02*
X0178201Y0016997D01*
X0151249Y0021794D02*
X0133546Y0021794D01*
X0134013Y0021987D02*
X0136725Y0024700D01*
X0139271Y0024700D01*
X0142200Y0027629D01*
X0145129Y0024700D01*
X0147200Y0024700D01*
X0147200Y0029700D01*
X0147200Y0029700D01*
X0147200Y0029700D01*
X0142200Y0029700D01*
X0142200Y0031771D01*
X0145129Y0034700D01*
X0147200Y0034700D01*
X0147200Y0029700D01*
X0142200Y0029700D01*
X0142200Y0027629D01*
X0142200Y0031771D01*
X0139271Y0034700D01*
X0135129Y0034700D01*
X0132200Y0031771D01*
X0132200Y0029225D01*
X0130875Y0027900D01*
X0122505Y0027900D01*
X0121806Y0028600D01*
X0120115Y0029300D01*
X0119125Y0029300D01*
X0117900Y0030525D01*
X0117900Y0036495D01*
X0118600Y0037194D01*
X0119300Y0038885D01*
X0119300Y0045515D01*
X0118600Y0047206D01*
X0117306Y0048500D01*
X0115615Y0049200D01*
X0113785Y0049200D01*
X0112094Y0048500D01*
X0110800Y0047206D01*
X0110100Y0045515D01*
X0110100Y0038885D01*
X0110800Y0037194D01*
X0111500Y0036495D01*
X0111500Y0028563D01*
X0111987Y0027387D01*
X0114600Y0024775D01*
X0114600Y0023785D01*
X0115300Y0022094D01*
X0116594Y0020800D01*
X0118285Y0020100D01*
X0120115Y0020100D01*
X0121806Y0020800D01*
X0122505Y0021500D01*
X0132837Y0021500D01*
X0134013Y0021987D01*
X0136218Y0024193D02*
X0150253Y0024193D01*
X0147200Y0026591D02*
X0147200Y0026591D01*
X0147200Y0028990D02*
X0147200Y0028990D01*
X0147200Y0031388D02*
X0147200Y0031388D01*
X0147200Y0033787D02*
X0147200Y0033787D01*
X0147306Y0035900D02*
X0145615Y0035200D01*
X0143785Y0035200D01*
X0142094Y0035900D01*
X0140800Y0037194D01*
X0140100Y0038885D01*
X0140100Y0045515D01*
X0140800Y0047206D01*
X0142094Y0048500D01*
X0143785Y0049200D01*
X0145615Y0049200D01*
X0147306Y0048500D01*
X0148600Y0047206D01*
X0149300Y0045515D01*
X0149300Y0038885D01*
X0148600Y0037194D01*
X0147306Y0035900D01*
X0147590Y0036185D02*
X0151809Y0036185D01*
X0152750Y0033787D02*
X0150184Y0033787D01*
X0144216Y0033787D02*
X0140184Y0033787D01*
X0141809Y0036185D02*
X0137590Y0036185D01*
X0137306Y0035900D02*
X0138600Y0037194D01*
X0139300Y0038885D01*
X0139300Y0045515D01*
X0138600Y0047206D01*
X0137306Y0048500D01*
X0135615Y0049200D01*
X0133785Y0049200D01*
X0132094Y0048500D01*
X0130800Y0047206D01*
X0130100Y0045515D01*
X0130100Y0038885D01*
X0130800Y0037194D01*
X0132094Y0035900D01*
X0133785Y0035200D01*
X0135615Y0035200D01*
X0137306Y0035900D01*
X0139175Y0038584D02*
X0140225Y0038584D01*
X0140100Y0040982D02*
X0139300Y0040982D01*
X0139300Y0043381D02*
X0140100Y0043381D01*
X0140209Y0045779D02*
X0139191Y0045779D01*
X0137628Y0048178D02*
X0141772Y0048178D01*
X0147628Y0048178D02*
X0151772Y0048178D01*
X0150209Y0045779D02*
X0149191Y0045779D01*
X0149300Y0043381D02*
X0150100Y0043381D01*
X0150100Y0040982D02*
X0149300Y0040982D01*
X0149175Y0038584D02*
X0150225Y0038584D01*
X0142200Y0031388D02*
X0142200Y0031388D01*
X0142200Y0028990D02*
X0142200Y0028990D01*
X0141162Y0026591D02*
X0143238Y0026591D01*
X0132200Y0031388D02*
X0117900Y0031388D01*
X0117900Y0033787D02*
X0134216Y0033787D01*
X0131809Y0036185D02*
X0127590Y0036185D01*
X0127306Y0035900D02*
X0128600Y0037194D01*
X0129300Y0038885D01*
X0129300Y0045515D01*
X0128600Y0047206D01*
X0127306Y0048500D01*
X0125615Y0049200D01*
X0123785Y0049200D01*
X0122094Y0048500D01*
X0120800Y0047206D01*
X0120100Y0045515D01*
X0120100Y0038885D01*
X0120800Y0037194D01*
X0122094Y0035900D01*
X0123785Y0035200D01*
X0125615Y0035200D01*
X0127306Y0035900D01*
X0129175Y0038584D02*
X0130225Y0038584D01*
X0130100Y0040982D02*
X0129300Y0040982D01*
X0129300Y0043381D02*
X0130100Y0043381D01*
X0130209Y0045779D02*
X0129191Y0045779D01*
X0127628Y0048178D02*
X0131772Y0048178D01*
X0121772Y0048178D02*
X0117628Y0048178D01*
X0119191Y0045779D02*
X0120209Y0045779D01*
X0120100Y0043381D02*
X0119300Y0043381D01*
X0119300Y0040982D02*
X0120100Y0040982D01*
X0120225Y0038584D02*
X0119175Y0038584D01*
X0117900Y0036185D02*
X0121809Y0036185D01*
X0111500Y0036185D02*
X0107900Y0036185D01*
X0107900Y0033787D02*
X0111500Y0033787D01*
X0111500Y0031388D02*
X0107900Y0031388D01*
X0107900Y0028990D02*
X0111500Y0028990D01*
X0112783Y0026591D02*
X0106617Y0026591D01*
X0104800Y0024193D02*
X0114600Y0024193D01*
X0115601Y0021794D02*
X0103799Y0021794D01*
X0098536Y0028990D02*
X0088686Y0028990D01*
X0087200Y0031388D02*
X0101500Y0031388D01*
X0100225Y0038584D02*
X0099141Y0038584D01*
X0099300Y0040982D02*
X0100100Y0040982D01*
X0100100Y0043381D02*
X0099300Y0043381D01*
X0099154Y0045779D02*
X0100209Y0045779D01*
X0101772Y0048178D02*
X0097602Y0048178D01*
X0096250Y0052975D02*
X0159200Y0052975D01*
X0159200Y0055373D02*
X0098649Y0055373D01*
X0107628Y0048178D02*
X0111772Y0048178D01*
X0110209Y0045779D02*
X0109191Y0045779D01*
X0109300Y0043381D02*
X0110100Y0043381D01*
X0110100Y0040982D02*
X0109300Y0040982D01*
X0109175Y0038584D02*
X0110225Y0038584D01*
X0120864Y0028990D02*
X0131964Y0028990D01*
X0166200Y0043381D02*
X0166200Y0043381D01*
X0166200Y0045779D02*
X0166200Y0045779D01*
X0166200Y0048178D02*
X0166200Y0048178D01*
X0169086Y0048178D02*
X0170250Y0048178D01*
X0170250Y0050576D02*
X0168354Y0050576D01*
X0164700Y0050576D02*
X0164700Y0050576D01*
X0164700Y0052975D02*
X0164700Y0052975D01*
X0164700Y0055373D02*
X0164700Y0055373D01*
X0164700Y0057772D02*
X0164700Y0057772D01*
X0164700Y0060170D02*
X0164700Y0060170D01*
X0167008Y0060170D02*
X0172392Y0060170D01*
X0169994Y0057772D02*
X0169406Y0057772D01*
X0162392Y0060170D02*
X0160946Y0060170D01*
X0159994Y0057772D02*
X0157889Y0057772D01*
X0163344Y0062569D02*
X0178201Y0062569D01*
X0178201Y0064967D02*
X0165743Y0064967D01*
X0168141Y0067366D02*
X0178201Y0067366D01*
X0178201Y0069764D02*
X0170540Y0069764D01*
X0172938Y0072163D02*
X0178201Y0072163D01*
X0178201Y0074561D02*
X0175337Y0074561D01*
X0176650Y0076960D02*
X0178201Y0076960D01*
X0178201Y0079358D02*
X0177136Y0079358D01*
X0170250Y0079358D02*
X0167136Y0079358D01*
X0168684Y0076960D02*
X0158702Y0076960D01*
X0158600Y0077206D02*
X0157306Y0078500D01*
X0155615Y0079200D01*
X0153785Y0079200D01*
X0152094Y0078500D01*
X0150800Y0077206D01*
X0150100Y0075515D01*
X0150100Y0068885D01*
X0150800Y0067194D01*
X0152094Y0065900D01*
X0153785Y0065200D01*
X0155615Y0065200D01*
X0157306Y0065900D01*
X0158600Y0067194D01*
X0159300Y0068885D01*
X0159300Y0075515D01*
X0158600Y0077206D01*
X0159300Y0074561D02*
X0166286Y0074561D01*
X0163887Y0072163D02*
X0159300Y0072163D01*
X0159300Y0069764D02*
X0161489Y0069764D01*
X0159090Y0067366D02*
X0158671Y0067366D01*
X0156692Y0064967D02*
X0108243Y0064967D01*
X0090729Y0067366D02*
X0088617Y0067366D01*
X0088634Y0067389D02*
X0088963Y0068034D01*
X0089187Y0068723D01*
X0089300Y0069438D01*
X0089300Y0072200D01*
X0089300Y0074962D01*
X0089187Y0075677D01*
X0088963Y0076366D01*
X0088634Y0077011D01*
X0088209Y0077597D01*
X0087697Y0078109D01*
X0087111Y0078534D01*
X0086466Y0078863D01*
X0085777Y0079087D01*
X0085062Y0079200D01*
X0084700Y0079200D01*
X0084700Y0072200D01*
X0089300Y0072200D01*
X0084700Y0072200D01*
X0084700Y0072200D01*
X0084700Y0072200D01*
X0084700Y0065200D01*
X0085062Y0065200D01*
X0085777Y0065313D01*
X0086466Y0065537D01*
X0087111Y0065866D01*
X0087697Y0066291D01*
X0088209Y0066803D01*
X0088634Y0067389D01*
X0089300Y0069764D02*
X0090100Y0069764D01*
X0090100Y0072163D02*
X0089300Y0072163D01*
X0089300Y0074561D02*
X0090100Y0074561D01*
X0090698Y0076960D02*
X0088660Y0076960D01*
X0084700Y0076960D02*
X0084700Y0076960D01*
X0082934Y0078863D02*
X0082289Y0078534D01*
X0081703Y0078109D01*
X0081191Y0077597D01*
X0080766Y0077011D01*
X0080437Y0076366D01*
X0080213Y0075677D01*
X0080100Y0074962D01*
X0080100Y0072200D01*
X0084700Y0072200D01*
X0084700Y0072200D01*
X0084700Y0072200D01*
X0084700Y0079200D01*
X0084338Y0079200D01*
X0083623Y0079087D01*
X0082934Y0078863D01*
X0080740Y0076960D02*
X0078702Y0076960D01*
X0079300Y0074561D02*
X0080100Y0074561D01*
X0080100Y0072200D02*
X0080100Y0069438D01*
X0080213Y0068723D01*
X0080437Y0068034D01*
X0080766Y0067389D01*
X0081191Y0066803D01*
X0081703Y0066291D01*
X0082289Y0065866D01*
X0082934Y0065537D01*
X0083623Y0065313D01*
X0084338Y0065200D01*
X0084700Y0065200D01*
X0084700Y0072200D01*
X0080100Y0072200D01*
X0080100Y0072163D02*
X0079300Y0072163D01*
X0079300Y0069764D02*
X0080100Y0069764D01*
X0080783Y0067366D02*
X0078671Y0067366D01*
X0084700Y0067366D02*
X0084700Y0067366D01*
X0084700Y0069764D02*
X0084700Y0069764D01*
X0084700Y0072163D02*
X0084700Y0072163D01*
X0084700Y0074561D02*
X0084700Y0074561D01*
X0081629Y0091351D02*
X0090271Y0091351D01*
X0089200Y0093749D02*
X0082700Y0093749D01*
X0082700Y0096148D02*
X0089200Y0096148D01*
X0099129Y0091351D02*
X0100271Y0091351D01*
X0109129Y0091351D02*
X0117771Y0091351D01*
X0126629Y0091351D02*
X0127771Y0091351D01*
X0137431Y0084155D02*
X0138380Y0084155D01*
X0139829Y0086554D02*
X0141331Y0086554D01*
X0142228Y0088952D02*
X0145385Y0088952D01*
X0149700Y0088952D02*
X0149700Y0088952D01*
X0149700Y0091351D02*
X0149700Y0091351D01*
X0154015Y0088952D02*
X0154427Y0088952D01*
X0158681Y0084155D02*
X0159200Y0084155D01*
X0159865Y0081757D02*
X0156282Y0081757D01*
X0162264Y0079358D02*
X0142634Y0079358D01*
X0142094Y0078500D02*
X0143785Y0079200D01*
X0145615Y0079200D01*
X0147306Y0078500D01*
X0148600Y0077206D01*
X0149300Y0075515D01*
X0149300Y0068885D01*
X0148600Y0067194D01*
X0147306Y0065900D01*
X0145615Y0065200D01*
X0143785Y0065200D01*
X0142094Y0065900D01*
X0140800Y0067194D01*
X0140100Y0068885D01*
X0140100Y0075515D01*
X0140800Y0077206D01*
X0142094Y0078500D01*
X0140698Y0076960D02*
X0140235Y0076960D01*
X0140100Y0074561D02*
X0139300Y0074561D01*
X0139300Y0072163D02*
X0140100Y0072163D01*
X0140100Y0069764D02*
X0139300Y0069764D01*
X0138671Y0067366D02*
X0140729Y0067366D01*
X0148671Y0067366D02*
X0150729Y0067366D01*
X0150100Y0069764D02*
X0149300Y0069764D01*
X0149300Y0072163D02*
X0150100Y0072163D01*
X0150100Y0074561D02*
X0149300Y0074561D01*
X0148702Y0076960D02*
X0150698Y0076960D01*
X0135981Y0081757D02*
X0135032Y0081757D01*
X0133583Y0079358D02*
X0132634Y0079358D01*
X0130698Y0076960D02*
X0130235Y0076960D01*
X0130100Y0074561D02*
X0129300Y0074561D01*
X0129300Y0072163D02*
X0130100Y0072163D01*
X0130100Y0069764D02*
X0129300Y0069764D01*
X0128671Y0067366D02*
X0130729Y0067366D01*
X0169535Y0081757D02*
X0169865Y0081757D01*
X0177008Y0060170D02*
X0178201Y0060170D01*
X0078238Y0026591D02*
X0076162Y0026591D01*
X0077200Y0028990D02*
X0077200Y0028990D01*
X0077200Y0031388D02*
X0077200Y0031388D01*
X0072200Y0031388D02*
X0072200Y0031388D01*
X0072200Y0028990D02*
X0072200Y0028990D01*
X0072200Y0026591D02*
X0072200Y0026591D01*
D20*
X0064700Y0024700D02*
X0057200Y0032200D01*
X0054700Y0032200D01*
X0064700Y0024700D02*
X0064700Y0019700D01*
X0082200Y0029700D02*
X0083450Y0029700D01*
X0088450Y0024700D01*
X0100200Y0024700D01*
X0104700Y0029200D01*
X0104700Y0042200D01*
X0114700Y0042200D02*
X0114700Y0029200D01*
X0119200Y0024700D01*
X0132200Y0024700D01*
X0137200Y0029700D01*
X0154853Y0027095D02*
X0155950Y0027200D01*
X0155950Y0040950D01*
X0154700Y0042200D01*
X0172200Y0044700D02*
X0173200Y0044700D01*
X0173450Y0044700D01*
X0173450Y0053450D01*
X0174700Y0054700D01*
X0172200Y0044700D02*
X0174700Y0042200D01*
X0174700Y0027200D01*
X0174538Y0027095D01*
X0157200Y0060950D02*
X0100950Y0060950D01*
X0100325Y0061575D01*
X0084700Y0045950D01*
X0084700Y0042200D01*
X0064700Y0042200D02*
X0064700Y0062200D01*
X0069700Y0067200D01*
X0069700Y0092200D01*
X0067200Y0094700D01*
X0064700Y0099700D02*
X0143450Y0099700D01*
X0145950Y0102200D01*
X0149700Y0102200D01*
X0145950Y0097200D02*
X0164700Y0097200D01*
X0169700Y0102200D01*
X0169700Y0092200D02*
X0169700Y0089700D01*
X0174700Y0084700D01*
X0173450Y0084700D01*
X0173450Y0077200D01*
X0157200Y0060950D01*
X0134700Y0072200D02*
X0134700Y0075950D01*
X0142200Y0083450D01*
X0153450Y0083450D01*
X0159700Y0089700D01*
X0159700Y0092200D01*
X0145950Y0097200D02*
X0124700Y0075950D01*
X0124700Y0072200D01*
X0105950Y0070950D02*
X0105950Y0067200D01*
X0100325Y0061575D01*
X0105950Y0070950D02*
X0104700Y0072200D01*
X0104700Y0094700D02*
X0122200Y0094700D01*
X0064700Y0099700D02*
X0050950Y0085950D01*
X0050950Y0083450D01*
X0050000Y0083300D01*
X0024400Y0083300D02*
X0023450Y0082200D01*
X0020950Y0082200D01*
X0014700Y0075950D01*
X0014700Y0052200D01*
X0024700Y0042200D01*
X0024700Y0032200D01*
X0034700Y0042200D02*
X0034700Y0019700D01*
X0044700Y0019700D02*
X0044700Y0042200D01*
M02*
